<svg width="60" height="60" viewBox="0 0 60 60" fill="none" xmlns="http://www.w3.org/2000/svg">
  <defs>
    <linearGradient id="orangeRetail" x1="0%" y1="0%" x2="100%" y2="100%">
      <stop offset="0%" style="stop-color:#FF6B35"/>
      <stop offset="100%" style="stop-color:#F7931E"/>
    </linearGradient>
  </defs>

  <!-- Store front building -->
  <rect x="10" y="25" width="40" height="25" fill="url(#orangeRetail)" opacity="0.2" rx="2"/>

  <!-- Store awning -->
  <path d="M 8 25 L 30 15 L 52 25 L 50 28 L 30 18 L 10 28 Z" fill="url(#orangeRetail)"/>

  <!-- Door -->
  <rect x="24" y="35" width="12" height="15" fill="url(#orangeRetail)" opacity="0.6" rx="1"/>
  <circle cx="33" cy="42" r="1" fill="#FF6B35"/>

  <!-- Windows -->
  <rect x="13" y="30" width="8" height="8" fill="#00D9A3" opacity="0.5" rx="1"/>
  <rect x="39" y="30" width="8" height="8" fill="#00D9A3" opacity="0.5" rx="1"/>

  <!-- Person approaching store -->
  <circle cx="16" cy="46" r="3" fill="#00D9A3"/>
  <path d="M 13 50 L 13 56 M 19 50 L 19 56 M 13 50 L 16 50 L 19 50" stroke="#00D9A3" stroke-width="2" stroke-linecap="round"/>

  <!-- Shopping bag -->
  <path d="M 42 42 L 42 48 L 48 48 L 48 42" stroke="url(#orangeRetail)" stroke-width="2" fill="none"/>
  <path d="M 43 42 Q 45 38 47 42" stroke="url(#orangeRetail)" stroke-width="1.5" fill="none"/>
</svg>
