<svg width="2200" height="550" viewBox="0 0 2200 550" fill="none" xmlns="http://www.w3.org/2000/svg">
<g filter="url(#filter0_d_2286_67)">
<path d="M199.102 338.061C199.102 338.701 199.557 339.279 200.316 339.521L202.439 340.198L200.522 341.334C200.143 341.559 199.761 341.788 199.415 342.002L199.405 342.008C196.204 343.944 193.096 345.802 189.945 347.482L189.935 347.488L189.923 347.494L189.745 347.584L189.743 347.585L189.711 347.6L189.707 347.602L189.708 347.603C185.445 349.999 181.115 352.397 176.786 354.757L176.784 354.758C165.472 360.897 153.825 366.913 141.813 372.808L140.373 373.515V201.885C140.373 201.583 140.266 201.276 140.047 201.008L127.082 185.183L125.743 183.549H197.477L197.764 184.054L259.207 291.986V291.975L261.077 295.271L263.108 298.854L263.546 299.626L262.833 300.152C254.574 306.26 246.275 312.088 238.218 317.687L238.19 317.704L220.129 329.413L220.115 329.423L220.101 329.433C218.908 330.212 217.856 330.901 216.832 331.53L213.642 333.489L215.431 330.2C215.661 329.777 215.659 329.281 215.388 328.845L200.727 305.289L200.683 305.219L200.651 305.142C200.567 304.938 200.296 304.707 199.884 304.707C199.245 304.707 199.045 305.173 199.085 305.392L199.102 305.481V338.061Z" fill="white" stroke="#D9A441" stroke-width="2"/>
<mask id="mask0_2286_67" style="mask-type:luminance" maskUnits="userSpaceOnUse" x="82" y="113" width="365" height="299">
<path d="M446 114V410.994H83V114H446Z" fill="white" stroke="white" stroke-width="2"/>
</mask>
<g mask="url(#mask0_2286_67)">
<mask id="path-3-outside-1_2286_67" maskUnits="userSpaceOnUse" x="111.137" y="112.06" width="337" height="289" fill="black">
<rect fill="white" x="111.137" y="112.06" width="337" height="289"/>
<path d="M420.407 116.06C423.785 124.019 435.896 152.563 441.059 164.588C441.6 165.852 442.536 168.056 443.397 170.086C442.669 169.697 441.894 169.288 441.098 168.873C438.413 167.473 435.491 165.979 433.401 164.918L431.633 164.021L431.486 163.952C430.016 163.304 428.256 163.894 427.599 165.21L427.538 165.344C425.28 170.647 422.842 175.792 420.213 180.788C419.998 181.198 419.719 181.697 419.464 182.214C418.449 184.131 417.41 186.014 416.359 187.877V187.879C416.158 188.236 415.897 188.69 415.678 189.09C414.57 191.089 413.552 193.001 412.383 194.819L412.379 194.829L412.372 194.839C411.845 195.684 411.318 196.53 410.787 197.377C410.26 198.221 409.733 199.066 409.21 199.912C407.406 202.774 405.668 205.552 403.764 208.186L403.757 208.199L403.746 208.213L399.26 214.707L394.553 220.967L394.546 220.975L394.542 220.982C391.477 225.158 388.164 229.106 384.847 233.095C371.565 248.93 357.079 263.188 341.844 276.292L336.115 281.182L333.248 283.593L330.315 285.905L318.495 295.155L306.41 303.883C304.252 305.377 302.461 306.765 300.378 308.142L294.174 312.236L294.162 312.243L294.151 312.251C287.212 316.988 280.127 321.448 272.959 325.734L272.931 325.751C272.087 326.277 271.3 326.762 270.482 327.235L270.463 327.246C261.586 332.524 252.555 337.55 243.546 342.553L230.501 349.275L223.949 352.625L223.945 352.627C222.915 353.157 221.92 353.673 220.877 354.19C219.723 354.754 218.574 355.311 217.429 355.838L217.424 355.84L217.42 355.842L204.137 362.043L204.134 362.044C199.683 364.131 195.318 366.198 190.865 368.041L190.836 368.053L190.808 368.066C190.421 368.241 190.048 368.398 189.623 368.584C170.452 376.97 150.977 384.634 131.359 391.734L129.46 392.419C123.7 394.48 117.926 396.499 112.137 398.477C118.446 395.581 124.728 392.634 130.98 389.629L130.981 389.626C150.135 380.413 168.984 370.668 187.442 360.205C188.767 359.489 190.106 358.699 191.367 357.976C194.29 356.342 197.159 354.636 200.024 352.9L200.024 352.9L212.408 345.466C213.213 345.013 214.106 344.427 214.736 344.051L214.758 344.037L214.78 344.023C215.996 343.247 217.316 342.443 218.596 341.59L224.659 337.675L224.663 337.673L236.78 329.806L236.804 329.79L236.827 329.774C245.353 323.846 253.9 317.876 262.243 311.685L262.244 311.684C269.373 306.386 276.372 300.967 283.168 295.269L288.734 290.715L288.733 290.715C290.621 289.186 292.484 287.44 294.193 285.961L294.201 285.955L294.208 285.949L302.104 278.966L302.107 278.964L302.11 278.962L304.958 276.421L304.98 276.401L305.002 276.381L315.361 266.472L315.363 266.469L317.94 263.995L317.964 263.971L317.988 263.946L320.451 261.377L325.419 256.234L325.424 256.229L325.429 256.224C338.583 242.376 350.832 227.64 361.566 212.005L361.573 211.995C364.189 208.118 366.931 204.189 369.33 200.086L372.987 194.083L373.002 194.057L373.016 194.032L376.439 187.896C377.246 186.483 378.035 185.059 378.777 183.601C380.19 180.915 381.534 178.083 382.879 175.43L382.882 175.423L382.886 175.416C383.922 173.315 384.844 171.056 385.765 169.02V169.017V169.014C386.704 166.92 387.665 164.778 388.49 162.6L390.763 157.639V157.639C390.978 157.176 390.91 156.729 390.781 156.427C390.655 156.137 390.469 155.944 390.372 155.853C390.175 155.665 389.956 155.537 389.838 155.471C389.569 155.32 389.225 155.171 388.884 155.034C388.182 154.751 387.192 154.404 386.073 154.031C383.818 153.281 380.871 152.376 378.189 151.566V151.565L376.655 151.107C375.701 150.824 374.808 150.563 374.023 150.334L382.248 144.265V144.264L420.407 116.06Z"/>
</mask>
<path d="M420.407 116.06C423.785 124.019 435.896 152.563 441.059 164.588C441.6 165.852 442.536 168.056 443.397 170.086C442.669 169.697 441.894 169.288 441.098 168.873C438.413 167.473 435.491 165.979 433.401 164.918L431.633 164.021L431.486 163.952C430.016 163.304 428.256 163.894 427.599 165.21L427.538 165.344C425.28 170.647 422.842 175.792 420.213 180.788C419.998 181.198 419.719 181.697 419.464 182.214C418.449 184.131 417.41 186.014 416.359 187.877V187.879C416.158 188.236 415.897 188.69 415.678 189.09C414.57 191.089 413.552 193.001 412.383 194.819L412.379 194.829L412.372 194.839C411.845 195.684 411.318 196.53 410.787 197.377C410.26 198.221 409.733 199.066 409.21 199.912C407.406 202.774 405.668 205.552 403.764 208.186L403.757 208.199L403.746 208.213L399.26 214.707L394.553 220.967L394.546 220.975L394.542 220.982C391.477 225.158 388.164 229.106 384.847 233.095C371.565 248.93 357.079 263.188 341.844 276.292L336.115 281.182L333.248 283.593L330.315 285.905L318.495 295.155L306.41 303.883C304.252 305.377 302.461 306.765 300.378 308.142L294.174 312.236L294.162 312.243L294.151 312.251C287.212 316.988 280.127 321.448 272.959 325.734L272.931 325.751C272.087 326.277 271.3 326.762 270.482 327.235L270.463 327.246C261.586 332.524 252.555 337.55 243.546 342.553L230.501 349.275L223.949 352.625L223.945 352.627C222.915 353.157 221.92 353.673 220.877 354.19C219.723 354.754 218.574 355.311 217.429 355.838L217.424 355.84L217.42 355.842L204.137 362.043L204.134 362.044C199.683 364.131 195.318 366.198 190.865 368.041L190.836 368.053L190.808 368.066C190.421 368.241 190.048 368.398 189.623 368.584C170.452 376.97 150.977 384.634 131.359 391.734L129.46 392.419C123.7 394.48 117.926 396.499 112.137 398.477C118.446 395.581 124.728 392.634 130.98 389.629L130.981 389.626C150.135 380.413 168.984 370.668 187.442 360.205C188.767 359.489 190.106 358.699 191.367 357.976C194.29 356.342 197.159 354.636 200.024 352.9L200.024 352.9L212.408 345.466C213.213 345.013 214.106 344.427 214.736 344.051L214.758 344.037L214.78 344.023C215.996 343.247 217.316 342.443 218.596 341.59L224.659 337.675L224.663 337.673L236.78 329.806L236.804 329.79L236.827 329.774C245.353 323.846 253.9 317.876 262.243 311.685L262.244 311.684C269.373 306.386 276.372 300.967 283.168 295.269L288.734 290.715L288.733 290.715C290.621 289.186 292.484 287.44 294.193 285.961L294.201 285.955L294.208 285.949L302.104 278.966L302.107 278.964L302.11 278.962L304.958 276.421L304.98 276.401L305.002 276.381L315.361 266.472L315.363 266.469L317.94 263.995L317.964 263.971L317.988 263.946L320.451 261.377L325.419 256.234L325.424 256.229L325.429 256.224C338.583 242.376 350.832 227.64 361.566 212.005L361.573 211.995C364.189 208.118 366.931 204.189 369.33 200.086L372.987 194.083L373.002 194.057L373.016 194.032L376.439 187.896C377.246 186.483 378.035 185.059 378.777 183.601C380.19 180.915 381.534 178.083 382.879 175.43L382.882 175.423L382.886 175.416C383.922 173.315 384.844 171.056 385.765 169.02V169.017V169.014C386.704 166.92 387.665 164.778 388.49 162.6L390.763 157.639V157.639C390.978 157.176 390.91 156.729 390.781 156.427C390.655 156.137 390.469 155.944 390.372 155.853C390.175 155.665 389.956 155.537 389.838 155.471C389.569 155.32 389.225 155.171 388.884 155.034C388.182 154.751 387.192 154.404 386.073 154.031C383.818 153.281 380.871 152.376 378.189 151.566V151.565L376.655 151.107C375.701 150.824 374.808 150.563 374.023 150.334L382.248 144.265V144.264L420.407 116.06Z" fill="#D9A441"/>
<path d="M420.407 116.06C423.785 124.019 435.896 152.563 441.059 164.588C441.6 165.852 442.536 168.056 443.397 170.086C442.669 169.697 441.894 169.288 441.098 168.873C438.413 167.473 435.491 165.979 433.401 164.918L431.633 164.021L431.486 163.952C430.016 163.304 428.256 163.894 427.599 165.21L427.538 165.344C425.28 170.647 422.842 175.792 420.213 180.788C419.998 181.198 419.719 181.697 419.464 182.214C418.449 184.131 417.41 186.014 416.359 187.877V187.879C416.158 188.236 415.897 188.69 415.678 189.09C414.57 191.089 413.552 193.001 412.383 194.819L412.379 194.829L412.372 194.839C411.845 195.684 411.318 196.53 410.787 197.377C410.26 198.221 409.733 199.066 409.21 199.912C407.406 202.774 405.668 205.552 403.764 208.186L403.757 208.199L403.746 208.213L399.26 214.707L394.553 220.967L394.546 220.975L394.542 220.982C391.477 225.158 388.164 229.106 384.847 233.095C371.565 248.93 357.079 263.188 341.844 276.292L336.115 281.182L333.248 283.593L330.315 285.905L318.495 295.155L306.41 303.883C304.252 305.377 302.461 306.765 300.378 308.142L294.174 312.236L294.162 312.243L294.151 312.251C287.212 316.988 280.127 321.448 272.959 325.734L272.931 325.751C272.087 326.277 271.3 326.762 270.482 327.235L270.463 327.246C261.586 332.524 252.555 337.55 243.546 342.553L230.501 349.275L223.949 352.625L223.945 352.627C222.915 353.157 221.92 353.673 220.877 354.19C219.723 354.754 218.574 355.311 217.429 355.838L217.424 355.84L217.42 355.842L204.137 362.043L204.134 362.044C199.683 364.131 195.318 366.198 190.865 368.041L190.836 368.053L190.808 368.066C190.421 368.241 190.048 368.398 189.623 368.584C170.452 376.97 150.977 384.634 131.359 391.734L129.46 392.419C123.7 394.48 117.926 396.499 112.137 398.477C118.446 395.581 124.728 392.634 130.98 389.629L130.981 389.626C150.135 380.413 168.984 370.668 187.442 360.205C188.767 359.489 190.106 358.699 191.367 357.976C194.29 356.342 197.159 354.636 200.024 352.9L200.024 352.9L212.408 345.466C213.213 345.013 214.106 344.427 214.736 344.051L214.758 344.037L214.78 344.023C215.996 343.247 217.316 342.443 218.596 341.59L224.659 337.675L224.663 337.673L236.78 329.806L236.804 329.79L236.827 329.774C245.353 323.846 253.9 317.876 262.243 311.685L262.244 311.684C269.373 306.386 276.372 300.967 283.168 295.269L288.734 290.715L288.733 290.715C290.621 289.186 292.484 287.44 294.193 285.961L294.201 285.955L294.208 285.949L302.104 278.966L302.107 278.964L302.11 278.962L304.958 276.421L304.98 276.401L305.002 276.381L315.361 266.472L315.363 266.469L317.94 263.995L317.964 263.971L317.988 263.946L320.451 261.377L325.419 256.234L325.424 256.229L325.429 256.224C338.583 242.376 350.832 227.64 361.566 212.005L361.573 211.995C364.189 208.118 366.931 204.189 369.33 200.086L372.987 194.083L373.002 194.057L373.016 194.032L376.439 187.896C377.246 186.483 378.035 185.059 378.777 183.601C380.19 180.915 381.534 178.083 382.879 175.43L382.882 175.423L382.886 175.416C383.922 173.315 384.844 171.056 385.765 169.02V169.017V169.014C386.704 166.92 387.665 164.778 388.49 162.6L390.763 157.639V157.639C390.978 157.176 390.91 156.729 390.781 156.427C390.655 156.137 390.469 155.944 390.372 155.853C390.175 155.665 389.956 155.537 389.838 155.471C389.569 155.32 389.225 155.171 388.884 155.034C388.182 154.751 387.192 154.404 386.073 154.031C383.818 153.281 380.871 152.376 378.189 151.566V151.565L376.655 151.107C375.701 150.824 374.808 150.563 374.023 150.334L382.248 144.265V144.264L420.407 116.06Z" stroke="#D9A441" stroke-width="4" mask="url(#path-3-outside-1_2286_67)"/>
</g>
<mask id="mask1_2286_67" style="mask-type:luminance" maskUnits="userSpaceOnUse" x="114" y="182" width="321" height="256">
<path d="M433.521 183.342V436.203H115.039V183.342H433.521Z" fill="white" stroke="white" stroke-width="2"/>
</mask>
<g mask="url(#mask1_2286_67)">
<path d="M189.633 386.336C189.561 386.503 189.522 386.679 189.522 386.861V422.925C189.522 423.251 189.647 423.582 189.898 423.86L190.016 423.978L202.364 435.226L204.273 436.965H116.192L117.531 435.331L130.496 419.507C130.715 419.239 130.822 418.93 130.822 418.631V407.433L131.49 407.197C132.86 406.715 134.293 406.23 135.635 405.731L135.645 405.728C151.843 399.903 167.371 393.838 182.489 387.524L182.621 387.33H182.949C184.74 386.572 186.538 385.793 188.316 385.021L190.635 384.017L189.633 386.336ZM425.916 203.525H426.128V203.635L426.202 203.674C423.114 210.728 419.58 217.574 415.77 224.236L415.761 224.269L415.693 224.377V224.378L415.69 224.382C414.831 225.945 413.898 227.506 412.984 229.073L412.979 229.082L412.974 229.091C412.301 230.192 411.596 231.264 410.883 232.343L410.884 232.344L410.171 233.433L410.17 233.432C410.027 233.651 409.954 233.888 409.946 234.12V234.129L409.942 234.192L409.804 422.9C409.804 423.26 409.956 423.631 410.265 423.927H410.266L422.068 435.203L423.872 436.927H334.345L335.881 435.251L349.629 420.249V420.248C349.887 419.968 350.013 419.635 350.014 419.309L350.385 307.503C350.387 306.77 349.864 306.195 349.021 305.997C348.175 305.798 347.318 306.067 346.879 306.751L346.82 306.849L273.354 434.665L272.521 436.114L271.639 434.694L232.709 372.101V372.1L232.666 372.035L232.575 371.917C232.092 371.347 231.172 371.077 230.324 371.378L230.323 371.377L230.227 371.414C219.474 375.77 208.542 379.681 197.506 383.252L196.809 381.38C201.383 379.446 205.789 377.385 210.069 375.368L210.668 375.086L223.521 369.055L223.522 369.054C224.733 368.487 225.992 367.898 227.325 367.238L227.311 367.225L228.607 366.593C229.248 366.281 229.918 365.923 230.557 365.59L230.562 365.587L250.212 355.508L250.221 355.503L250.503 355.362L250.512 355.357L250.527 355.349L250.534 355.346L256.634 351.963C270.963 343.983 285.924 335.366 300.5 325.568L302.114 324.478L302.123 324.472L308.269 320.411L308.283 320.4L308.315 320.381V320.38L308.317 320.379C309.797 319.394 311.227 318.374 312.659 317.332L312.662 317.33L312.701 317.302C313.345 316.83 313.949 316.41 314.704 315.866L314.812 315.789L326.929 307.039L326.94 307.03L326.957 307.018L342.105 295.174L342.108 295.172L342.13 295.154L351.144 287.505L351.166 287.486C368.102 272.905 382.672 258.282 395.718 242.745L395.731 242.729L397.144 240.997L397.148 240.991C400.035 237.508 402.99 233.91 405.851 230.02L405.858 230.009L410.552 223.808L410.554 223.805L410.562 223.793L410.568 223.783L411.396 222.562L411.402 222.555L415.285 216.946L415.292 216.936C417.779 213.439 419.995 209.883 422.127 206.437V206.297L422.345 206.083C422.935 205.119 423.527 204.184 424.128 203.24V203.076L424.358 202.871C424.359 202.87 424.36 202.869 424.36 202.868C424.387 202.825 424.41 202.789 424.431 202.755L425.916 203.525Z" fill="white" stroke="#D9A441" stroke-width="2"/>
</g>
</g>
<path opacity="0.3" d="M480 165V385" stroke="#D9A441" stroke-width="1.5"/>
<path d="M525.556 333.96L490.734 246.218H488.952V310.379C488.952 314.766 489.272 318.194 489.911 320.661C490.642 323.038 492.151 324.728 494.435 325.734C496.812 326.739 500.376 327.379 505.129 327.653V333C503.21 332.817 500.559 332.726 497.177 332.726C493.796 332.634 490.231 332.589 486.484 332.589C483.011 332.589 479.766 332.634 476.75 332.726C473.734 332.726 471.312 332.817 469.484 333V327.653C473.414 327.379 476.384 326.739 478.395 325.734C480.406 324.728 481.731 323.083 482.371 320.798C483.102 318.513 483.468 315.36 483.468 311.339V253.073C483.468 249.691 483.148 247.223 482.508 245.669C481.868 244.116 480.543 243.019 478.532 242.379C476.613 241.739 473.597 241.374 469.484 241.282V235.935C471.495 236.027 474.145 236.118 477.435 236.21C480.817 236.301 484.473 236.347 488.403 236.347C492.973 236.347 497.269 236.301 501.29 236.21C505.312 236.118 508.922 236.027 512.121 235.935L538.855 304.347L534.331 307.5L559.419 235.935C562.984 236.118 566.274 236.255 569.29 236.347C572.306 236.347 575.414 236.347 578.613 236.347C583.183 236.347 587.524 236.301 591.637 236.21C595.841 236.118 599.177 236.027 601.645 235.935V241.282C597.532 241.374 594.47 241.739 592.46 242.379C590.54 242.927 589.261 244.024 588.621 245.669C587.981 247.223 587.661 249.691 587.661 253.073V315.863C587.661 319.153 587.981 321.621 588.621 323.266C589.261 324.82 590.586 325.917 592.597 326.556C594.608 327.105 597.624 327.47 601.645 327.653V333C598.812 332.817 595.156 332.726 590.677 332.726C586.199 332.634 581.309 332.589 576.008 332.589C570.433 332.589 565.406 332.634 560.927 332.726C556.449 332.726 552.93 332.817 550.371 333V327.653C554.301 327.47 557.226 327.105 559.145 326.556C561.156 325.917 562.481 324.82 563.121 323.266C563.761 321.621 564.081 319.153 564.081 315.863V244.024H562.161L530.492 333.96H525.556ZM665.256 334.919C654.837 334.919 645.742 332.817 637.974 328.613C630.205 324.409 624.127 318.559 619.74 311.065C615.444 303.478 613.296 294.659 613.296 284.605C613.296 274.642 615.49 265.868 619.877 258.282C624.264 250.696 630.342 244.755 638.111 240.46C645.88 236.164 654.928 234.016 665.256 234.016C675.675 234.016 684.769 236.118 692.538 240.323C700.307 244.527 706.339 250.422 710.635 258.008C714.931 265.503 717.078 274.277 717.078 284.331C717.078 294.293 714.885 303.067 710.498 310.653C706.202 318.239 700.17 324.18 692.401 328.476C684.632 332.772 675.584 334.919 665.256 334.919ZM665.393 329.847C670.603 329.847 675.218 327.973 679.24 324.226C683.353 320.478 686.597 315.223 688.974 308.46C691.35 301.605 692.538 293.608 692.538 284.468C692.538 275.145 691.304 267.102 688.837 260.339C686.369 253.575 683.033 248.366 678.828 244.71C674.716 240.962 670.146 239.089 665.119 239.089C659.909 239.089 655.248 240.962 651.135 244.71C647.022 248.457 643.777 253.758 641.401 260.613C639.116 267.376 637.974 275.328 637.974 284.468C637.974 293.699 639.162 301.742 641.538 308.597C644.006 315.36 647.296 320.616 651.409 324.363C655.613 328.019 660.275 329.847 665.393 329.847ZM784.873 333.96L750.05 246.218H748.268V310.379C748.268 314.766 748.588 318.194 749.228 320.661C749.959 323.038 751.467 324.728 753.752 325.734C756.128 326.739 759.693 327.379 764.445 327.653V333C762.526 332.817 759.876 332.726 756.494 332.726C753.112 332.634 749.548 332.589 745.8 332.589C742.327 332.589 739.083 332.634 736.066 332.726C733.05 332.726 730.628 332.817 728.8 333V327.653C732.73 327.379 735.701 326.739 737.712 325.734C739.722 324.728 741.048 323.083 741.687 320.798C742.419 318.513 742.784 315.36 742.784 311.339V253.073C742.784 249.691 742.464 247.223 741.824 245.669C741.185 244.116 739.859 243.019 737.849 242.379C735.929 241.739 732.913 241.374 728.8 241.282V235.935C730.811 236.027 733.462 236.118 736.752 236.21C740.134 236.301 743.79 236.347 747.72 236.347C752.29 236.347 756.585 236.301 760.607 236.21C764.628 236.118 768.238 236.027 771.437 235.935L798.171 304.347L793.647 307.5L818.736 235.935C822.3 236.118 825.591 236.255 828.607 236.347C831.623 236.347 834.73 236.347 837.929 236.347C842.499 236.347 846.841 236.301 850.954 236.21C855.158 236.118 858.494 236.027 860.962 235.935V241.282C856.849 241.374 853.787 241.739 851.776 242.379C849.857 242.927 848.577 244.024 847.937 245.669C847.298 247.223 846.978 249.691 846.978 253.073V315.863C846.978 319.153 847.298 321.621 847.937 323.266C848.577 324.82 849.902 325.917 851.913 326.556C853.924 327.105 856.94 327.47 860.962 327.653V333C858.128 332.817 854.472 332.726 849.994 332.726C845.515 332.634 840.626 332.589 835.324 332.589C829.749 332.589 824.722 332.634 820.244 332.726C815.765 332.726 812.247 332.817 809.687 333V327.653C813.617 327.47 816.542 327.105 818.462 326.556C820.472 325.917 821.798 324.82 822.437 323.266C823.077 321.621 823.397 319.153 823.397 315.863V244.024H821.478L789.808 333.96H784.873ZM871.906 333V327.653C876.019 327.47 879.035 327.105 880.954 326.556C882.965 326.008 884.29 324.911 884.93 323.266C885.57 321.621 885.89 319.153 885.89 315.863V253.073C885.89 249.782 885.57 247.36 884.93 245.806C884.29 244.161 882.965 243.019 880.954 242.379C879.035 241.739 876.019 241.374 871.906 241.282V235.935C876.841 236.027 883.33 236.118 891.373 236.21C899.416 236.301 908.785 236.347 919.478 236.347C923.774 236.347 927.796 236.347 931.543 236.347C935.29 236.255 938.763 236.21 941.962 236.21C945.161 236.118 948.04 236.027 950.599 235.935C950.599 241.237 950.782 246.492 951.148 251.702C951.513 256.82 952.062 261.892 952.793 266.919H947.309C946.029 260.978 944.293 256.18 942.099 252.524C939.997 248.777 937.392 246.035 934.285 244.298C931.269 242.562 927.613 241.694 923.317 241.694H909.47V317.919C909.47 320.57 909.699 322.581 910.156 323.952C910.613 325.323 911.481 326.237 912.761 326.694C914.132 327.059 916.097 327.242 918.656 327.242H921.398C926.333 327.242 930.766 326.145 934.696 323.952C938.626 321.758 942.099 318.376 945.115 313.806C948.132 309.145 950.828 303.25 953.204 296.121H958.688C958.048 302.884 957.546 309.328 957.18 315.452C956.906 321.484 956.814 327.333 956.906 333C952.336 332.817 946.943 332.726 940.728 332.726C934.513 332.634 927.156 332.589 918.656 332.589C908.145 332.589 898.96 332.634 891.099 332.726C883.239 332.726 876.841 332.817 871.906 333ZM905.083 286.798V281.589H930.309V286.798H905.083ZM932.365 304.758C931.908 300.645 930.994 297.263 929.623 294.613C928.344 291.962 926.562 289.997 924.277 288.718C922.083 287.438 919.341 286.798 916.051 286.798V281.589C920.438 281.589 923.957 280.081 926.607 277.065C929.349 273.957 931.132 269.478 931.954 263.629H937.164C936.798 269.022 936.615 273.18 936.615 276.105C936.707 279.03 936.753 281.726 936.753 284.194C936.753 286.022 936.753 287.895 936.753 289.815C936.844 291.642 936.935 293.745 937.027 296.121C937.21 298.497 937.392 301.376 937.575 304.758H932.365ZM1054.71 333.96L993.429 250.194H991.647V310.379C991.647 314.766 991.967 318.148 992.607 320.524C993.338 322.901 994.846 324.637 997.131 325.734C999.416 326.739 1002.98 327.379 1007.82 327.653V333C1006 332.817 1003.39 332.726 1000.01 332.726C996.72 332.634 993.246 332.589 989.59 332.589C985.935 332.589 982.599 332.634 979.582 332.726C976.566 332.726 974.099 332.817 972.179 333V327.653C976.201 327.379 979.171 326.739 981.09 325.734C983.101 324.637 984.426 322.946 985.066 320.661C985.797 318.376 986.163 315.269 986.163 311.339V253.073C986.163 249.691 985.843 247.223 985.203 245.669C984.564 244.116 983.238 243.019 981.228 242.379C979.308 241.739 976.292 241.374 972.179 241.282V235.935C974.281 236.027 977.023 236.118 980.405 236.21C983.787 236.301 987.443 236.347 991.373 236.347C995.394 236.347 999.142 236.301 1002.61 236.21C1006.09 236.118 1009.15 236.027 1011.8 235.935L1053.34 293.242H1055.12V258.556C1055.12 254.078 1054.76 250.696 1054.03 248.411C1053.39 246.035 1051.92 244.298 1049.64 243.202C1047.35 242.105 1043.84 241.465 1039.08 241.282V235.935C1040.91 236.027 1043.47 236.118 1046.76 236.21C1050.14 236.301 1053.61 236.347 1057.18 236.347C1060.84 236.347 1064.17 236.301 1067.19 236.21C1070.29 236.118 1072.76 236.027 1074.59 235.935V241.282C1070.66 241.556 1067.69 242.196 1065.68 243.202C1063.67 244.207 1062.34 245.852 1061.7 248.137C1061.06 250.422 1060.74 253.575 1060.74 257.597V333.96H1054.71ZM1098.26 333V327.653C1103.56 327.562 1107.54 327.242 1110.19 326.694C1112.84 326.054 1114.62 324.866 1115.53 323.129C1116.45 321.301 1116.91 318.559 1116.91 314.903V241.694H1113.89C1109.78 241.694 1106.17 242.699 1103.06 244.71C1100.04 246.72 1097.44 249.919 1095.24 254.306C1093.05 258.694 1091.13 264.36 1089.49 271.306H1083.86C1084.69 265.457 1085.28 259.608 1085.65 253.758C1086.01 247.817 1086.24 241.876 1086.33 235.935C1090.45 236.027 1094.97 236.118 1099.91 236.21C1104.93 236.301 1109.96 236.347 1114.99 236.347C1120.01 236.347 1124.63 236.347 1128.83 236.347C1132.85 236.347 1137.38 236.347 1142.41 236.347C1147.43 236.347 1152.46 236.301 1157.49 236.21C1162.51 236.118 1167.08 236.027 1171.2 235.935C1171.2 241.968 1171.38 247.909 1171.74 253.758C1172.2 259.608 1172.79 265.457 1173.53 271.306H1168.04C1166.76 266.097 1165.35 261.618 1163.79 257.871C1162.24 254.124 1160.46 251.062 1158.45 248.685C1156.53 246.309 1154.33 244.573 1151.86 243.476C1149.4 242.288 1146.61 241.694 1143.5 241.694H1140.49V314.903C1140.49 318.559 1140.94 321.301 1141.86 323.129C1142.77 324.866 1144.55 326.054 1147.2 326.694C1149.95 327.242 1153.97 327.562 1159.27 327.653V333C1155.98 332.909 1151.59 332.817 1146.11 332.726C1140.71 332.634 1135.05 332.589 1129.11 332.589C1122.8 332.589 1116.91 332.634 1111.42 332.726C1105.94 332.817 1101.55 332.909 1098.26 333ZM1233.48 334.919C1225.07 334.919 1217.99 333.457 1212.23 330.532C1206.47 327.516 1202.13 323.083 1199.2 317.234C1196.28 311.293 1194.82 304.027 1194.82 295.435V253.073C1194.82 249.782 1194.45 247.315 1193.72 245.669C1193.08 244.024 1191.76 242.927 1189.74 242.379C1187.82 241.739 1184.85 241.374 1180.83 241.282V235.935C1185.59 236.21 1194.27 236.347 1206.88 236.347C1219.13 236.347 1227.72 236.21 1232.66 235.935V241.282C1228.54 241.374 1225.48 241.739 1223.47 242.379C1221.46 243.019 1220.09 244.161 1219.36 245.806C1218.72 247.36 1218.4 249.782 1218.4 253.073V299.548C1218.4 309.054 1220.18 316.091 1223.74 320.661C1227.4 325.231 1233.02 327.516 1240.61 327.516C1248.47 327.516 1254.36 324.866 1258.29 319.565C1262.22 314.172 1264.19 306.129 1264.19 295.435V257.46C1264.19 253.164 1263.82 249.919 1263.09 247.726C1262.45 245.532 1261.13 243.978 1259.12 243.065C1257.1 242.151 1254.04 241.556 1249.93 241.282V235.935C1251.3 236.027 1253.4 236.118 1256.24 236.21C1259.07 236.301 1262.5 236.347 1266.52 236.347C1270.63 236.347 1274.1 236.301 1276.94 236.21C1279.77 236.118 1281.96 236.027 1283.52 235.935V241.282C1279.68 241.556 1276.76 242.196 1274.74 243.202C1272.82 244.116 1271.5 245.715 1270.77 248C1270.04 250.194 1269.67 253.392 1269.67 257.597V295.984C1269.67 308.962 1266.75 318.696 1260.9 325.185C1255.05 331.675 1245.91 334.919 1233.48 334.919ZM1347.33 333.96L1312.51 246.218H1310.73V310.379C1310.73 314.766 1311.05 318.194 1311.69 320.661C1312.42 323.038 1313.93 324.728 1316.21 325.734C1318.59 326.739 1322.15 327.379 1326.91 327.653V333C1324.99 332.817 1322.34 332.726 1318.95 332.726C1315.57 332.634 1312.01 332.589 1308.26 332.589C1304.79 332.589 1301.54 332.634 1298.53 332.726C1295.51 332.726 1293.09 332.817 1291.26 333V327.653C1295.19 327.379 1298.16 326.739 1300.17 325.734C1302.18 324.728 1303.51 323.083 1304.15 320.798C1304.88 318.513 1305.25 315.36 1305.25 311.339V253.073C1305.25 249.691 1304.93 247.223 1304.29 245.669C1303.65 244.116 1302.32 243.019 1300.31 242.379C1298.39 241.739 1295.37 241.374 1291.26 241.282V235.935C1293.27 236.027 1295.92 236.118 1299.21 236.21C1302.59 236.301 1306.25 236.347 1310.18 236.347C1314.75 236.347 1319.05 236.301 1323.07 236.21C1327.09 236.118 1330.7 236.027 1333.9 235.935L1360.63 304.347L1356.11 307.5L1381.2 235.935C1384.76 236.118 1388.05 236.255 1391.07 236.347C1394.08 236.347 1397.19 236.347 1400.39 236.347C1404.96 236.347 1409.3 236.301 1413.41 236.21C1417.62 236.118 1420.95 236.027 1423.42 235.935V241.282C1419.31 241.374 1416.25 241.739 1414.24 242.379C1412.32 242.927 1411.04 244.024 1410.4 245.669C1409.76 247.223 1409.44 249.691 1409.44 253.073V315.863C1409.44 319.153 1409.76 321.621 1410.4 323.266C1411.04 324.82 1412.36 325.917 1414.37 326.556C1416.38 327.105 1419.4 327.47 1423.42 327.653V333C1420.59 332.817 1416.93 332.726 1412.45 332.726C1407.98 332.634 1403.09 332.589 1397.79 332.589C1392.21 332.589 1387.18 332.634 1382.7 332.726C1378.23 332.726 1374.71 332.817 1372.15 333V327.653C1376.08 327.47 1379 327.105 1380.92 326.556C1382.93 325.917 1384.26 324.82 1384.9 323.266C1385.54 321.621 1385.86 319.153 1385.86 315.863V244.024H1383.94L1352.27 333.96H1347.33Z" fill="#D9A441"/>
<path d="M506.94 439.649L484.218 379.645H482.734V425.181C482.734 427.778 482.981 429.788 483.476 431.21C484.032 432.632 485.114 433.652 486.722 434.27C488.329 434.827 490.741 435.198 493.956 435.383V439C492.719 438.876 490.926 438.815 488.577 438.815C486.289 438.753 483.816 438.722 481.157 438.722C478.499 438.722 476.087 438.753 473.923 438.815C471.759 438.815 470.028 438.876 468.73 439V435.383C471.636 435.198 473.8 434.827 475.222 434.27C476.706 433.652 477.695 432.663 478.19 431.302C478.746 429.88 479.024 427.933 479.024 425.46V384.931C479.024 382.644 478.777 380.974 478.282 379.923C477.849 378.872 476.891 378.13 475.407 377.698C473.923 377.265 471.698 377.017 468.73 376.956V373.339C470.09 373.401 471.914 373.462 474.202 373.524C476.489 373.586 478.993 373.617 481.714 373.617C484.31 373.617 486.722 373.586 488.948 373.524C491.235 373.462 493.152 373.401 494.698 373.339L514.081 425.181L511.113 426.294L528.827 373.339C531.052 373.462 533.031 373.555 534.762 373.617C536.555 373.617 538.379 373.617 540.234 373.617C543.14 373.617 545.922 373.586 548.581 373.524C551.239 373.462 553.341 373.401 554.887 373.339V376.956C551.919 377.017 549.694 377.265 548.21 377.698C546.788 378.069 545.829 378.81 545.335 379.923C544.84 380.974 544.593 382.644 544.593 384.931V427.407C544.593 429.633 544.84 431.302 545.335 432.415C545.829 433.466 546.819 434.208 548.302 434.641C549.786 435.012 551.981 435.259 554.887 435.383V439C553.156 438.876 550.868 438.815 548.024 438.815C545.242 438.753 542.151 438.722 538.75 438.722C535.288 438.722 532.165 438.753 529.383 438.815C526.663 438.815 524.53 438.876 522.984 439V435.383C525.766 435.259 527.806 435.012 529.105 434.641C530.465 434.208 531.362 433.435 531.794 432.323C532.227 431.21 532.444 429.571 532.444 427.407V378.254H531.052L510.278 439.649H506.94ZM559.342 439V435.383C561.444 435.136 563.237 434.61 564.721 433.806C566.205 432.941 567.534 431.673 568.709 430.004C569.945 428.273 571.151 426.047 572.325 423.327L593.749 372.69H597.088L621.108 427.407C622.406 430.251 623.89 432.261 625.559 433.435C627.229 434.61 629.578 435.259 632.608 435.383V439C630.815 438.876 628.558 438.815 625.838 438.815C623.117 438.753 619.964 438.722 616.378 438.722C612.359 438.722 608.897 438.753 605.991 438.815C603.147 438.815 600.952 438.876 599.406 439V435.383C602.559 435.321 604.878 435.043 606.362 434.548C607.907 434.054 608.773 433.219 608.959 432.044C609.144 430.87 608.773 429.262 607.846 427.222L590.132 386.415L592.172 385.21L577.612 419.895C576.128 423.419 575.386 426.294 575.386 428.52C575.448 430.746 576.313 432.415 577.983 433.528C579.652 434.641 582.218 435.259 585.68 435.383V439C583.702 438.938 581.847 438.907 580.116 438.907C578.385 438.845 576.746 438.815 575.2 438.815C573.655 438.753 572.078 438.722 570.471 438.722C568.492 438.722 566.606 438.753 564.813 438.815C563.02 438.815 561.196 438.876 559.342 439ZM576.592 417.298L578.168 413.681H607.104L608.588 417.298H576.592ZM691.182 439.649L652.787 381.685H651.303V425.181C651.303 427.778 651.551 429.788 652.045 431.21C652.602 432.632 653.653 433.652 655.198 434.27C656.806 434.827 659.248 435.198 662.525 435.383V439C661.288 438.876 659.526 438.815 657.239 438.815C654.951 438.753 652.478 438.722 649.819 438.722C647.161 438.722 644.719 438.753 642.493 438.815C640.329 438.815 638.598 438.876 637.299 439V435.383C640.205 435.198 642.4 434.827 643.884 434.27C645.368 433.652 646.357 432.663 646.852 431.302C647.346 429.88 647.594 427.933 647.594 425.46V384.931C647.594 382.706 647.346 381.067 646.852 380.016C646.419 378.903 645.46 378.13 643.977 377.698C642.555 377.265 640.329 377.017 637.299 376.956V373.339C638.721 373.401 640.576 373.462 642.864 373.524C645.151 373.586 647.655 373.617 650.376 373.617C652.725 373.617 654.858 373.586 656.775 373.524C658.753 373.462 660.454 373.401 661.876 373.339L690.44 416.835H691.831V387.157C691.831 384.56 691.553 382.551 690.997 381.129C690.502 379.707 689.451 378.687 687.844 378.069C686.298 377.45 683.887 377.079 680.61 376.956V373.339C681.908 373.401 683.701 373.462 685.989 373.524C688.276 373.586 690.719 373.617 693.315 373.617C695.974 373.617 698.385 373.586 700.549 373.524C702.775 373.462 704.537 373.401 705.835 373.339V376.956C702.93 377.079 700.735 377.45 699.251 378.069C697.829 378.687 696.839 379.676 696.283 381.036C695.788 382.397 695.541 384.344 695.541 386.879V439.649H691.182ZM706.236 439V435.383C708.338 435.136 710.131 434.61 711.615 433.806C713.099 432.941 714.428 431.673 715.603 430.004C716.84 428.273 718.045 426.047 719.22 423.327L740.643 372.69H743.982L768.002 427.407C769.301 430.251 770.785 432.261 772.454 433.435C774.123 434.61 776.473 435.259 779.502 435.383V439C777.709 438.876 775.453 438.815 772.732 438.815C770.012 438.753 766.858 438.722 763.272 438.722C759.254 438.722 755.791 438.753 752.885 438.815C750.041 438.815 747.846 438.876 746.301 439V435.383C749.454 435.321 751.772 435.043 753.256 434.548C754.802 434.054 755.668 433.219 755.853 432.044C756.039 430.87 755.668 429.262 754.74 427.222L737.026 386.415L739.067 385.21L724.506 419.895C723.022 423.419 722.28 426.294 722.28 428.52C722.342 430.746 723.208 432.415 724.877 433.528C726.547 434.641 729.112 435.259 732.575 435.383V439C730.596 438.938 728.742 438.907 727.01 438.907C725.279 438.845 723.641 438.815 722.095 438.815C720.549 438.753 718.973 438.722 717.365 438.722C715.387 438.722 713.501 438.753 711.708 438.815C709.915 438.815 708.091 438.876 706.236 439ZM723.486 417.298L725.063 413.681H753.998L755.482 417.298H723.486ZM813.778 440.298C807.595 440.298 802.185 438.938 797.548 436.218C792.973 433.435 789.417 429.571 786.882 424.625C784.348 419.617 783.08 413.743 783.08 407.004C783.08 400.017 784.409 393.927 787.068 388.734C789.727 383.478 793.436 379.398 798.197 376.492C802.958 373.524 808.46 372.04 814.705 372.04C817.735 372.04 820.362 372.349 822.588 372.968C824.814 373.524 826.731 374.235 828.338 375.101C829.946 375.905 831.306 376.616 832.419 377.234C833.594 377.79 834.645 378.069 835.572 378.069C836.499 378.069 837.21 377.636 837.705 376.77C838.262 375.905 838.663 374.483 838.911 372.504H842.62C842.559 374.359 842.497 376.368 842.435 378.532C842.373 380.634 842.311 383.169 842.249 386.137C842.249 389.043 842.249 392.691 842.249 397.081H838.54C837.921 392.815 836.623 389.105 834.645 385.952C832.666 382.798 830.162 380.356 827.132 378.625C824.165 376.894 820.764 376.028 816.931 376.028C812.541 376.028 808.77 377.234 805.616 379.645C802.525 382.056 800.145 385.519 798.475 390.032C796.806 394.546 795.971 400.017 795.971 406.448C795.971 415.969 797.764 423.388 801.35 428.706C804.998 433.961 810.068 436.589 816.56 436.589C819.28 436.589 821.63 436.187 823.608 435.383C825.649 434.517 827.225 433.312 828.338 431.766C829.451 430.22 830.007 428.397 830.007 426.294V418.69C830.007 416.835 829.729 415.413 829.173 414.423C828.678 413.434 827.689 412.754 826.205 412.383C824.721 411.95 822.588 411.672 819.806 411.548V408.024C821.104 408.086 823.021 408.148 825.556 408.21C828.153 408.272 831.213 408.302 834.737 408.302C837.891 408.302 840.642 408.272 842.991 408.21C845.341 408.148 847.35 408.086 849.02 408.024V411.548C847.103 411.672 845.65 411.95 844.661 412.383C843.733 412.816 843.084 413.589 842.713 414.702C842.404 415.753 842.249 417.36 842.249 419.524V439.556H838.632C838.385 437.949 837.983 436.805 837.427 436.125C836.932 435.445 836.159 435.105 835.108 435.105C834.119 435.105 832.975 435.352 831.677 435.847C830.44 436.341 828.987 436.96 827.318 437.702C825.649 438.382 823.701 438.969 821.475 439.464C819.311 440.02 816.745 440.298 813.778 440.298ZM857.529 439V435.383C860.558 435.259 862.784 435.012 864.206 434.641C865.69 434.27 866.648 433.528 867.081 432.415C867.576 431.302 867.823 429.633 867.823 427.407V384.931C867.823 382.706 867.576 381.067 867.081 380.016C866.648 378.903 865.69 378.13 864.206 377.698C862.784 377.265 860.558 377.017 857.529 376.956V373.339C860.867 373.401 865.195 373.462 870.513 373.524C875.892 373.586 882.167 373.617 889.339 373.617C891.874 373.617 894.316 373.617 896.666 373.617C899.077 373.555 901.334 373.524 903.436 373.524C905.538 373.462 907.424 373.401 909.093 373.339C909.155 376.616 909.31 379.862 909.557 383.077C909.804 386.292 910.175 389.476 910.67 392.629H906.96C906.095 388.796 905.013 385.766 903.714 383.54C902.478 381.253 900.87 379.645 898.892 378.718C896.975 377.728 894.595 377.234 891.75 377.234H880.065V428.149C880.065 430.066 880.22 431.55 880.529 432.601C880.9 433.652 881.58 434.332 882.569 434.641C883.62 434.95 885.166 435.105 887.206 435.105H890.267C893.976 435.105 897.068 434.487 899.541 433.25C902.076 432.013 904.209 429.973 905.94 427.129C907.733 424.223 909.371 420.297 910.855 415.351H914.658C914.163 419.493 913.792 423.512 913.545 427.407C913.297 431.241 913.205 435.105 913.267 439C910.299 438.876 906.836 438.815 902.879 438.815C898.922 438.753 894.285 438.722 888.968 438.722C881.92 438.722 875.737 438.753 870.42 438.815C865.164 438.815 860.867 438.876 857.529 439ZM877.097 407.746V404.222H893.698V407.746H877.097ZM896.573 419.71C896.264 416.804 895.707 414.485 894.904 412.754C894.162 411.023 893.049 409.755 891.565 408.952C890.143 408.148 888.319 407.746 886.093 407.746V404.222C889.185 404.222 891.534 403.263 893.142 401.347C894.749 399.43 895.769 396.401 896.202 392.258H899.634C899.386 395.844 899.263 398.626 899.263 400.605C899.324 402.583 899.355 404.376 899.355 405.984C899.355 407.282 899.355 408.581 899.355 409.879C899.417 411.116 899.479 412.538 899.541 414.145C899.664 415.691 899.788 417.546 899.912 419.71H896.573ZM963.57 439.649L940.849 379.645H939.365V425.181C939.365 427.778 939.612 429.788 940.107 431.21C940.663 432.632 941.745 433.652 943.353 434.27C944.96 434.827 947.371 435.198 950.587 435.383V439C949.35 438.876 947.557 438.815 945.207 438.815C942.92 438.753 940.447 438.722 937.788 438.722C935.13 438.722 932.718 438.753 930.554 438.815C928.39 438.815 926.659 438.876 925.361 439V435.383C928.267 435.198 930.431 434.827 931.853 434.27C933.337 433.652 934.326 432.663 934.82 431.302C935.377 429.88 935.655 427.933 935.655 425.46V384.931C935.655 382.644 935.408 380.974 934.913 379.923C934.48 378.872 933.522 378.13 932.038 377.698C930.554 377.265 928.328 377.017 925.361 376.956V373.339C926.721 373.401 928.545 373.462 930.832 373.524C933.12 373.586 935.624 373.617 938.345 373.617C940.941 373.617 943.353 373.586 945.578 373.524C947.866 373.462 949.783 373.401 951.328 373.339L970.712 425.181L967.744 426.294L985.457 373.339C987.683 373.462 989.662 373.555 991.393 373.617C993.186 373.617 995.01 373.617 996.865 373.617C999.771 373.617 1002.55 373.586 1005.21 373.524C1007.87 373.462 1009.97 373.401 1011.52 373.339V376.956C1008.55 377.017 1006.32 377.265 1004.84 377.698C1003.42 378.069 1002.46 378.81 1001.97 379.923C1001.47 380.974 1001.22 382.644 1001.22 384.931V427.407C1001.22 429.633 1001.47 431.302 1001.97 432.415C1002.46 433.466 1003.45 434.208 1004.93 434.641C1006.42 435.012 1008.61 435.259 1011.52 435.383V439C1009.79 438.876 1007.5 438.815 1004.66 438.815C1001.87 438.753 998.781 438.722 995.381 438.722C991.918 438.722 988.796 438.753 986.014 438.815C983.293 438.815 981.16 438.876 979.615 439V435.383C982.397 435.259 984.437 435.012 985.736 434.641C987.096 434.208 987.992 433.435 988.425 432.323C988.858 431.21 989.074 429.571 989.074 427.407V378.254H987.683L966.909 439.649H963.57ZM1021.04 439V435.383C1024.07 435.259 1026.3 435.012 1027.72 434.641C1029.21 434.27 1030.16 433.528 1030.6 432.415C1031.09 431.302 1031.34 429.633 1031.34 427.407V384.931C1031.34 382.706 1031.09 381.067 1030.6 380.016C1030.16 378.903 1029.21 378.13 1027.72 377.698C1026.3 377.265 1024.07 377.017 1021.04 376.956V373.339C1024.38 373.401 1028.71 373.462 1034.03 373.524C1039.41 373.586 1045.68 373.617 1052.85 373.617C1055.39 373.617 1057.83 373.617 1060.18 373.617C1062.59 373.555 1064.85 373.524 1066.95 373.524C1069.05 373.462 1070.94 373.401 1072.61 373.339C1072.67 376.616 1072.83 379.862 1073.07 383.077C1073.32 386.292 1073.69 389.476 1074.19 392.629H1070.48C1069.61 388.796 1068.53 385.766 1067.23 383.54C1065.99 381.253 1064.39 379.645 1062.41 378.718C1060.49 377.728 1058.11 377.234 1055.27 377.234H1043.58V428.149C1043.58 430.066 1043.74 431.55 1044.04 432.601C1044.42 433.652 1045.1 434.332 1046.08 434.641C1047.14 434.95 1048.68 435.105 1050.72 435.105H1053.78C1057.49 435.105 1060.58 434.487 1063.06 433.25C1065.59 432.013 1067.72 429.973 1069.46 427.129C1071.25 424.223 1072.89 420.297 1074.37 415.351H1078.17C1077.68 419.493 1077.31 423.512 1077.06 427.407C1076.81 431.241 1076.72 435.105 1076.78 439C1073.81 438.876 1070.35 438.815 1066.4 438.815C1062.44 438.753 1057.8 438.722 1052.48 438.722C1045.44 438.722 1039.25 438.753 1033.94 438.815C1028.68 438.815 1024.38 438.876 1021.04 439ZM1040.61 407.746V404.222H1057.21V407.746H1040.61ZM1060.09 419.71C1059.78 416.804 1059.22 414.485 1058.42 412.754C1057.68 411.023 1056.56 409.755 1055.08 408.952C1053.66 408.148 1051.83 407.746 1049.61 407.746V404.222C1052.7 404.222 1055.05 403.263 1056.66 401.347C1058.26 399.43 1059.28 396.401 1059.72 392.258H1063.15C1062.9 395.844 1062.78 398.626 1062.78 400.605C1062.84 402.583 1062.87 404.376 1062.87 405.984C1062.87 407.282 1062.87 408.581 1062.87 409.879C1062.93 411.116 1062.99 412.538 1063.06 414.145C1063.18 415.691 1063.3 417.546 1063.43 419.71H1060.09ZM1142.76 439.649L1104.36 381.685H1102.88V425.181C1102.88 427.778 1103.13 429.788 1103.62 431.21C1104.18 432.632 1105.23 433.652 1106.78 434.27C1108.38 434.827 1110.83 435.198 1114.1 435.383V439C1112.87 438.876 1111.1 438.815 1108.82 438.815C1106.53 438.753 1104.06 438.722 1101.4 438.722C1098.74 438.722 1096.3 438.753 1094.07 438.815C1091.91 438.815 1090.17 438.876 1088.88 439V435.383C1091.78 435.198 1093.98 434.827 1095.46 434.27C1096.94 433.652 1097.93 432.663 1098.43 431.302C1098.92 429.88 1099.17 427.933 1099.17 425.46V384.931C1099.17 382.706 1098.92 381.067 1098.43 380.016C1098 378.903 1097.04 378.13 1095.55 377.698C1094.13 377.265 1091.91 377.017 1088.88 376.956V373.339C1090.3 373.401 1092.15 373.462 1094.44 373.524C1096.73 373.586 1099.23 373.617 1101.95 373.617C1104.3 373.617 1106.44 373.586 1108.35 373.524C1110.33 373.462 1112.03 373.401 1113.45 373.339L1142.02 416.835H1143.41V387.157C1143.41 384.56 1143.13 382.551 1142.57 381.129C1142.08 379.707 1141.03 378.687 1139.42 378.069C1137.87 377.45 1135.46 377.079 1132.19 376.956V373.339C1133.49 373.401 1135.28 373.462 1137.57 373.524C1139.85 373.586 1142.3 373.617 1144.89 373.617C1147.55 373.617 1149.96 373.586 1152.13 373.524C1154.35 373.462 1156.11 373.401 1157.41 373.339V376.956C1154.51 377.079 1152.31 377.45 1150.83 378.069C1149.41 378.687 1148.42 379.676 1147.86 381.036C1147.37 382.397 1147.12 384.344 1147.12 386.879V439.649H1142.76ZM1174.64 439V435.383C1178.29 435.321 1181.01 435.074 1182.8 434.641C1184.66 434.208 1185.89 433.374 1186.51 432.137C1187.13 430.901 1187.44 429.077 1187.44 426.665V377.234H1183.64C1180.85 377.234 1178.5 377.821 1176.59 378.996C1174.73 380.171 1173.16 382.118 1171.86 384.839C1170.56 387.559 1169.38 391.207 1168.33 395.782H1164.62C1165.24 391.949 1165.68 388.177 1165.92 384.468C1166.17 380.758 1166.32 377.048 1166.39 373.339C1168.98 373.401 1171.86 373.462 1175.01 373.524C1178.16 373.586 1181.35 373.617 1184.56 373.617C1187.78 373.617 1190.78 373.617 1193.56 373.617C1196.16 373.617 1199.03 373.617 1202.18 373.617C1205.4 373.617 1208.61 373.586 1211.83 373.524C1215.04 373.462 1217.98 373.401 1220.64 373.339C1220.7 377.048 1220.86 380.758 1221.1 384.468C1221.41 388.177 1221.85 391.949 1222.4 395.782H1218.6C1217.86 392.32 1217.02 389.414 1216.1 387.065C1215.17 384.715 1214.12 382.798 1212.94 381.315C1211.77 379.831 1210.38 378.78 1208.77 378.161C1207.22 377.543 1205.43 377.234 1203.39 377.234H1199.59V426.665C1199.59 429.077 1199.9 430.901 1200.52 432.137C1201.13 433.374 1202.34 434.208 1204.13 434.641C1205.99 435.074 1208.74 435.321 1212.39 435.383V439C1210.35 438.876 1207.66 438.815 1204.32 438.815C1200.98 438.753 1197.42 438.722 1193.65 438.722C1189.7 438.722 1186.02 438.753 1182.62 438.815C1179.28 438.815 1176.62 438.876 1174.64 439Z" fill="#D9A441"/>
<defs>
<filter id="filter0_d_2286_67" x="107.301" y="113" width="343.699" height="332.203" filterUnits="userSpaceOnUse" color-interpolation-filters="sRGB">
<feFlood flood-opacity="0" result="BackgroundImageFix"/>
<feColorMatrix in="SourceAlpha" type="matrix" values="0 0 0 0 0 0 0 0 0 0 0 0 0 0 0 0 0 0 127 0" result="hardAlpha"/>
<feOffset dy="4"/>
<feGaussianBlur stdDeviation="2"/>
<feComposite in2="hardAlpha" operator="out"/>
<feColorMatrix type="matrix" values="0 0 0 0 0 0 0 0 0 0 0 0 0 0 0 0 0 0 0.25 0"/>
<feBlend mode="normal" in2="BackgroundImageFix" result="effect1_dropShadow_2286_67"/>
<feBlend mode="normal" in="SourceGraphic" in2="effect1_dropShadow_2286_67" result="shape"/>
</filter>
</defs>
</svg>
