<svg width="2200" height="550" viewBox="0 0 2200 550" fill="none" xmlns="http://www.w3.org/2000/svg">
<g clip-path="url(#clip0_2286_67)">
<g opacity="0.1" filter="url(#filter0_f_2286_67)">
<path d="M245 475C355.457 475 445 385.457 445 275C445 164.543 355.457 75 245 75C134.543 75 45 164.543 45 275C45 385.457 134.543 475 245 475Z" fill="#D9A441"/>
</g>
<path opacity="0.3" d="M245 475C355.457 475 445 385.457 445 275C445 164.543 355.457 75 245 75C134.543 75 45 164.543 45 275C45 385.457 134.543 475 245 475Z" stroke="#D9A441" stroke-width="2"/>
<path d="M184.759 184.549L241.266 295.765V295.765L243.079 299.348C235.719 305.447 228.32 311.268 221.131 316.865L204.987 328.591L204.984 328.594L204.982 328.596C203.914 329.378 202.987 330.059 202.086 330.678C202.441 329.948 202.44 329.067 202.022 328.316L188.937 304.76C188.711 304.146 188.12 303.707 187.426 303.707C186.395 303.707 185.683 304.638 185.836 305.572V338.06C185.836 339.234 186.584 340.132 187.542 340.474C187.202 340.7 186.855 340.932 186.538 341.152C183.681 343.088 180.925 344.934 178.137 346.6L177.978 346.69L177.942 346.709L177.907 346.731C174.105 349.126 170.245 351.521 166.384 353.879C156.299 360.012 145.915 366.021 135.205 371.91V201.885C135.205 201.342 135.032 200.813 134.712 200.374L123.141 184.549H184.759Z" fill="#0A0F1D" stroke="#D9A441" stroke-width="3.2"/>
<mask id="mask0_2286_67" style="mask-type:luminance" maskUnits="userSpaceOnUse" x="82" y="113" width="326" height="299">
<path d="M406.196 115V409.994H84V115H406.196Z" fill="white" stroke="white" stroke-width="3.2"/>
</mask>
<g mask="url(#mask0_2286_67)">
<path d="M384.248 116.06C387.262 124.019 398.072 152.563 402.68 164.588C403.163 165.852 403.998 168.056 404.766 170.086C404.117 169.697 403.426 169.288 402.715 168.873C400.318 167.473 397.71 165.979 395.845 164.918L394.267 164.021L394.136 163.952C392.824 163.304 391.253 163.894 390.667 165.21L390.613 165.344C388.597 170.647 386.421 175.792 384.075 180.788C383.883 181.198 383.634 181.697 383.406 182.214C382.501 184.131 381.573 186.014 380.635 187.877V187.879C380.456 188.236 380.222 188.69 380.027 189.09C379.038 191.089 378.13 193.001 377.086 194.819L377.083 194.829L377.077 194.839C376.606 195.684 376.136 196.53 375.662 197.377C375.192 198.221 374.722 199.066 374.254 199.912C372.645 202.774 371.093 205.552 369.394 208.186L369.387 208.199L369.378 208.213L365.374 214.707L361.173 220.967L361.166 220.975L361.163 220.982C358.427 225.158 355.47 229.106 352.51 233.095C340.656 248.93 327.727 263.188 314.13 276.292L309.016 281.182L306.458 283.593L303.84 285.905L293.29 295.155L282.504 303.883C280.578 305.377 278.98 306.765 277.121 308.142L271.584 312.236L271.573 312.243L271.563 312.251C265.37 316.988 259.046 321.448 252.649 325.734L252.624 325.751C251.871 326.277 251.168 326.762 250.438 327.235L250.421 327.246C242.498 332.524 234.438 337.55 226.398 342.553L214.755 349.275L208.907 352.625L208.903 352.627C207.984 353.157 207.096 353.673 206.165 354.19C205.135 354.754 204.109 355.311 203.088 355.838L203.083 355.84L203.079 355.842L191.224 362.043L191.222 362.044C187.249 364.131 183.354 366.198 179.379 368.041L179.353 368.053L179.328 368.066C178.983 368.241 178.65 368.398 178.271 368.584C161.161 376.97 143.779 384.634 126.269 391.734L124.574 392.419C119.434 394.48 114.28 396.499 109.113 398.477C114.744 395.581 120.351 392.634 125.932 389.629L125.932 389.626C143.027 380.413 159.85 370.668 176.324 360.205C177.507 359.489 178.702 358.699 179.827 357.976C182.436 356.342 184.996 354.636 187.554 352.9L187.553 352.9L198.606 345.466C199.325 345.013 200.122 344.427 200.684 344.051L200.704 344.037L200.724 344.023C201.809 343.247 202.987 342.443 204.129 341.59L209.541 337.675L209.544 337.673L220.359 329.806L220.38 329.79L220.401 329.774C228.01 323.846 235.638 317.876 243.085 311.685L243.086 311.684C249.449 306.386 255.695 300.967 261.761 295.269L266.728 290.715L266.728 290.715C268.412 289.186 270.075 287.44 271.601 285.961L271.607 285.955L271.614 285.949L278.661 278.966L278.664 278.964L278.666 278.962L281.209 276.421L281.228 276.401L281.247 276.381L290.493 266.472L290.495 266.469L292.795 263.995L292.817 263.971L292.838 263.946L295.036 261.377L299.47 256.234L299.475 256.229L299.479 256.224C311.219 242.376 322.151 227.64 331.732 212.005L331.738 211.995C334.073 208.118 336.52 204.189 338.661 200.086L341.925 194.083L341.939 194.057L341.951 194.032L345.006 187.896C345.726 186.483 346.43 185.059 347.093 183.601C348.354 180.915 349.554 178.083 350.754 175.43L350.757 175.423L350.76 175.416C351.685 173.315 352.507 171.056 353.33 169.02V169.017V169.014C354.168 166.92 355.026 164.778 355.762 162.6L357.79 157.639V157.639C357.982 157.176 357.922 156.729 357.806 156.427C357.694 156.137 357.528 155.944 357.442 155.853C357.266 155.665 357.07 155.537 356.965 155.471C356.725 155.32 356.418 155.171 356.114 155.034C355.486 154.751 354.603 154.404 353.605 154.031C351.592 153.281 348.962 152.376 346.568 151.566V151.565L345.198 151.107C344.347 150.824 343.55 150.563 342.85 150.334L350.19 144.265V144.264L384.248 116.06Z" fill="#D9A441" stroke="#D9A441" stroke-width="3.2"/>
</g>
<mask id="mask1_2286_67" style="mask-type:luminance" maskUnits="userSpaceOnUse" x="110" y="182" width="287" height="255">
<path d="M395.057 184.342V435.203H112.594V184.342H395.057Z" fill="white" stroke="white" stroke-width="3.2"/>
</mask>
<g mask="url(#mask1_2286_67)">
<path d="M177.459 385.939C177.348 386.227 177.288 386.538 177.288 386.861V422.925C177.288 423.597 177.55 424.24 178.019 424.717L189.04 435.965H114.617L126.189 420.141C126.509 419.703 126.682 419.171 126.682 418.631V408.141C127.891 407.664 129.188 407.171 130.395 406.669C144.956 400.803 158.91 394.695 172.494 388.333L172.496 388.33H172.498C174.154 387.546 175.819 386.736 177.459 385.939ZM388.601 203.272C385.846 210.323 382.691 217.172 379.283 223.841L379.28 223.853L379.273 223.865C378.508 225.425 377.68 226.977 376.851 228.569C376.259 229.655 375.638 230.716 375.001 231.795L374.364 232.884C374.15 233.251 374.032 233.665 374.019 234.087L374.016 234.171L373.891 422.899C373.891 423.549 374.137 424.176 374.579 424.65L385.113 435.926H309.464L321.734 420.925C322.107 420.47 322.311 419.901 322.313 419.312L322.644 307.506C322.652 304.857 319.147 303.963 317.866 306.22L317.806 306.33L252.227 434.166L217.482 371.572L217.419 371.465C216.765 370.41 215.447 369.978 214.298 370.435L214.183 370.483C204.606 374.831 194.866 378.735 185.03 382.301C189.131 380.358 193.078 378.289 196.898 376.272L196.899 376.273L208.903 369.959L208.903 369.96C210.317 369.218 211.821 368.432 213.455 367.492L213.455 367.492C214.041 367.172 214.657 366.803 215.216 366.476L232.754 356.397L233.005 356.256L233.036 356.239L233.065 356.221C247.478 347.295 262.825 337.622 277.728 326.397L279.169 325.306L284.681 321.226L284.683 321.224L284.685 321.223C286.038 320.214 287.343 319.172 288.642 318.112L288.644 318.11L288.646 318.108C289.258 317.606 289.772 317.211 290.526 316.6L290.525 316.6L301.339 307.85L301.363 307.83L301.387 307.809L314.912 295.962L314.936 295.941L314.96 295.918L323.006 288.268L323.01 288.264L323.014 288.26C338.172 273.639 351.219 258.971 362.902 243.38L362.908 243.37L362.915 243.361L364.176 241.629C366.752 238.146 369.404 234.529 371.974 230.612L376.163 224.411L376.185 224.378L376.204 224.345L376.944 223.124L380.409 217.516C382.7 213.907 384.732 210.24 386.675 206.72V206.717L386.678 206.713C387.267 205.635 387.856 204.591 388.46 203.529V203.525L388.464 203.522C388.508 203.439 388.556 203.355 388.601 203.272Z" fill="#0A0F1D" stroke="#D9A441" stroke-width="3.2"/>
</g>
<path opacity="0.3" d="M480 165V385" stroke="#D9A441" stroke-width="1.5"/>
<path d="M481.798 219.273H511.19L542.234 295.011H543.555L574.599 219.273H603.992V332H580.874V258.628H579.939L550.766 331.45H535.024L505.851 258.353H504.915V332H481.798V219.273ZM727.219 275.636C727.219 287.929 724.889 298.387 720.228 307.011C715.605 315.634 709.293 322.221 701.294 326.771C693.331 331.284 684.377 333.541 674.433 333.541C664.415 333.541 655.425 331.266 647.462 326.716C639.499 322.166 633.206 315.579 628.582 306.956C623.959 298.332 621.647 287.893 621.647 275.636C621.647 263.344 623.959 252.885 628.582 244.262C633.206 235.639 639.499 229.07 647.462 224.557C655.425 220.007 664.415 217.732 674.433 217.732C684.377 217.732 693.331 220.007 701.294 224.557C709.293 229.07 715.605 235.639 720.228 244.262C724.889 252.885 727.219 263.344 727.219 275.636ZM703.055 275.636C703.055 267.674 701.863 260.958 699.477 255.491C697.129 250.023 693.808 245.877 689.515 243.051C685.221 240.226 680.194 238.813 674.433 238.813C668.672 238.813 663.645 240.226 659.351 243.051C655.058 245.877 651.719 250.023 649.334 255.491C646.985 260.958 645.811 267.674 645.811 275.636C645.811 283.599 646.985 290.314 649.334 295.782C651.719 301.25 655.058 305.396 659.351 308.222C663.645 311.047 668.672 312.46 674.433 312.46C680.194 312.46 685.221 311.047 689.515 308.222C693.808 305.396 697.129 301.25 699.477 295.782C701.863 290.314 703.055 283.599 703.055 275.636ZM744.874 219.273H774.267L805.311 295.011H806.632L837.676 219.273H867.068V332H843.95V258.628H843.015L813.842 331.45H798.1L768.927 258.353H767.992V332H744.874V219.273ZM886.705 332V219.273H962.664V238.923H910.538V265.784H958.756V285.434H910.538V312.35H962.884V332H886.705ZM1075.9 219.273V332H1055.31L1006.27 261.05H1005.45V332H981.612V219.273H1002.53L1051.19 290.168H1052.18V219.273H1075.9ZM1091.3 238.923V219.273H1183.88V238.923H1149.37V332H1125.81V238.923H1091.3ZM1268.76 219.273H1292.59V292.479C1292.59 300.699 1290.63 307.891 1286.7 314.056C1282.81 320.221 1277.36 325.028 1270.35 328.477C1263.34 331.89 1255.18 333.596 1245.86 333.596C1236.5 333.596 1228.32 331.89 1221.31 328.477C1214.3 325.028 1208.85 320.221 1204.96 314.056C1201.07 307.891 1199.13 300.699 1199.13 292.479V219.273H1222.96V290.443C1222.96 294.736 1223.9 298.552 1225.77 301.892C1227.68 305.231 1230.35 307.855 1233.8 309.763C1237.25 311.671 1241.27 312.625 1245.86 312.625C1250.48 312.625 1254.5 311.671 1257.91 309.763C1261.36 307.855 1264.02 305.231 1265.89 301.892C1267.8 298.552 1268.76 294.736 1268.76 290.443V219.273ZM1312.2 219.273H1341.59L1372.63 295.011H1373.96L1405 219.273H1434.39V332H1411.27V258.628H1410.34L1381.17 331.45H1365.42L1336.25 258.353H1335.32V332H1312.2V219.273Z" fill="#D9A441"/>
<path d="M481.247 362.636H492.284L518.236 426.024H519.131L545.082 362.636H556.119V439H547.469V380.982H546.723L522.859 439H514.507L490.643 380.982H489.898V439H481.247V362.636ZM577.792 439H568.098L596.138 362.636H605.683L633.723 439H624.028L601.209 374.717H600.612L577.792 439ZM581.372 409.17H620.449V417.374H581.372V409.17ZM706.171 362.636V439H697.222L655.61 379.043H654.864V439H645.617V362.636H654.566L696.328 422.743H697.073V362.636H706.171ZM727.807 439H718.112L746.152 362.636H755.698L783.737 439H774.043L751.223 374.717H750.627L727.807 439ZM731.387 409.17H770.463V417.374H731.387V409.17ZM844.245 386.5C843.424 383.989 842.343 381.74 841.001 379.751C839.683 377.738 838.105 376.022 836.265 374.605C834.451 373.189 832.388 372.107 830.076 371.362C827.764 370.616 825.228 370.243 822.469 370.243C817.945 370.243 813.831 371.411 810.127 373.748C806.423 376.085 803.478 379.527 801.29 384.076C799.103 388.625 798.009 394.206 798.009 400.818C798.009 407.43 799.115 413.011 801.328 417.56C803.54 422.109 806.535 425.552 810.314 427.888C814.092 430.225 818.343 431.393 823.066 431.393C827.441 431.393 831.294 430.461 834.625 428.597C837.981 426.708 840.591 424.048 842.455 420.618C844.344 417.162 845.289 413.098 845.289 408.425L848.123 409.021H825.154V400.818H854.238V409.021C854.238 415.31 852.895 420.779 850.211 425.428C847.551 430.076 843.872 433.68 839.174 436.241C834.5 438.776 829.131 440.044 823.066 440.044C816.304 440.044 810.363 438.453 805.243 435.271C800.147 432.089 796.169 427.565 793.311 421.699C790.477 415.832 789.06 408.872 789.06 400.818C789.06 394.778 789.868 389.346 791.484 384.524C793.124 379.676 795.436 375.55 798.419 372.145C801.402 368.739 804.932 366.129 809.009 364.314C813.085 362.5 817.572 361.592 822.469 361.592C826.496 361.592 830.25 362.201 833.73 363.419C837.235 364.613 840.354 366.315 843.089 368.528C845.848 370.715 848.147 373.338 849.987 376.395C851.826 379.428 853.094 382.796 853.79 386.5H844.245ZM870.075 439V362.636H916.162V370.839H879.322V396.642H913.776V404.845H879.322V430.797H916.759V439H870.075ZM932.829 362.636H943.866L969.818 426.024H970.713L996.664 362.636H1007.7V439H999.051V380.982H998.305L974.441 439H966.089L942.225 380.982H941.48V439H932.829V362.636ZM1026.24 439V362.636H1072.33V370.839H1035.49V396.642H1069.94V404.845H1035.49V430.797H1072.93V439H1026.24ZM1149.55 362.636V439H1140.6L1098.99 379.043H1098.24V439H1089V362.636H1097.95L1139.71 422.743H1140.45V362.636H1149.55ZM1163.88 370.839V362.636H1221.15V370.839H1197.14V439H1187.89V370.839H1163.88Z" fill="#D9A441"/>
</g>
<defs>
<filter id="filter0_f_2286_67" x="-3" y="27" width="496" height="496" filterUnits="userSpaceOnUse" color-interpolation-filters="sRGB">
<feFlood flood-opacity="0" result="BackgroundImageFix"/>
<feBlend mode="normal" in="SourceGraphic" in2="BackgroundImageFix" result="shape"/>
<feGaussianBlur stdDeviation="24" result="effect1_foregroundBlur_2286_67"/>
</filter>
<clipPath id="clip0_2286_67">
<rect width="2200" height="550" fill="white"/>
</clipPath>
</defs>
</svg>
