<svg width="2200" height="550" viewBox="0 0 2200 550" fill="none" xmlns="http://www.w3.org/2000/svg">
  <defs>
    <style>
      @import url('https://fonts.cdnfonts.com/css/bodoni-flf');
    </style>
  </defs>

  <!-- Background overlay for M logo -->
  <g transform="translate(80, 90)">
    <!-- Subtle circular background - centered at M -->
    <circle cx="165" cy="185" r="200" fill="#0A0F1D" opacity="0.05"/>
    <circle cx="165" cy="185" r="200" fill="none" stroke="#D9A441" stroke-width="2" opacity="0.3"/>

    <!-- Logo Symbol (M with arrow) - centered within circle -->
    <g transform="translate(-35, 15) scale(0.32)">
      <path d="M507.936 385.025L684.519 732.577V732.576L690.186 743.773C667.184 762.831 644.063 781.022 621.597 798.514L571.147 835.158L571.139 835.165L571.131 835.171C567.794 837.616 564.899 839.743 562.083 841.68C563.191 839.398 563.187 836.645 561.883 834.298L520.991 760.686C520.284 758.765 518.437 757.395 516.271 757.395C513.048 757.395 510.823 760.304 511.3 763.222V864.748C511.3 868.416 513.64 871.222 516.632 872.291C515.569 872.997 514.485 873.723 513.495 874.41C504.566 880.46 495.954 886.23 487.241 891.436L486.744 891.715L486.633 891.777L486.524 891.845C474.643 899.329 462.579 906.814 450.515 914.182C418.998 933.346 386.547 952.126 353.08 970.528V439.2C353.08 437.503 352.54 435.849 351.538 434.479L315.378 385.025H507.936Z" fill="#0A0F1D" stroke="#D9A441" stroke-width="10"/>
      <mask id="mask0_2284_59" style="mask-type:luminance" maskUnits="userSpaceOnUse" x="188" y="162" width="1017" height="933">
        <path d="M1199.93 167.684V1089.54H193.066V167.684H1199.93Z" fill="white" stroke="white" stroke-width="10"/>
      </mask>
      <g mask="url(#mask0_2284_59)">
        <path d="M1131.34 170.996C1140.76 195.869 1174.54 285.068 1188.94 322.646V322.646C1190.45 326.596 1193.06 333.485 1195.46 339.828C1193.43 338.614 1191.27 337.335 1189.05 336.039H1189.05C1181.56 331.663 1173.41 326.995 1167.58 323.68L1162.65 320.876L1162.24 320.66C1158.14 318.634 1153.23 320.48 1151.4 324.591L1151.23 325.01C1144.93 341.581 1138.13 357.66 1130.8 373.271C1130.2 374.555 1129.42 376.114 1128.71 377.729C1125.88 383.72 1122.98 389.605 1120.05 395.427L1120.05 395.433C1119.49 396.546 1118.76 397.967 1118.15 399.215C1115.06 405.462 1112.22 411.438 1108.96 417.118L1108.95 417.149L1108.93 417.181C1107.46 419.822 1105.99 422.465 1104.51 425.112C1103.04 427.75 1101.57 430.392 1100.11 433.035C1095.08 441.98 1090.23 450.661 1084.92 458.89L1084.9 458.932L1084.87 458.975L1072.36 479.269L1059.23 498.833L1059.21 498.856L1059.2 498.88C1050.65 511.93 1041.41 524.265 1032.16 536.733C995.115 586.215 954.712 630.772 912.22 671.723L896.24 687.005L888.246 694.539L880.065 701.764L847.096 730.67L813.39 757.944C807.371 762.614 802.376 766.95 796.568 771.254L779.265 784.046L779.231 784.07L779.199 784.095C759.846 798.897 740.085 812.834 720.094 826.229L720.016 826.281C717.662 827.924 715.466 829.441 713.184 830.92L713.131 830.955C688.372 847.446 663.184 863.154 638.058 878.788L601.673 899.794L583.398 910.263L583.388 910.27C580.516 911.924 577.741 913.538 574.832 915.155C571.612 916.917 568.407 918.657 565.214 920.303L565.2 920.31L565.188 920.316L528.141 939.695L528.133 939.698C515.718 946.218 503.546 952.68 491.124 958.438L491.044 958.476L490.965 958.516C489.887 959.063 488.845 959.553 487.662 960.136C434.192 986.341 379.874 1010.29 325.157 1032.48L319.86 1034.62C303.796 1041.06 287.69 1047.37 271.544 1053.55C289.14 1044.5 306.661 1035.29 324.101 1025.9L324.103 1025.89C377.524 997.099 430.096 966.647 481.577 933.949C485.273 931.712 489.008 929.243 492.525 926.984C500.677 921.879 508.679 916.546 516.67 911.122L516.669 911.121L551.21 887.89C553.456 886.474 555.947 884.644 557.703 883.468L557.766 883.426L557.826 883.382C561.219 880.957 564.899 878.445 568.469 875.778L585.38 863.545L585.391 863.537L619.187 838.954L619.253 838.905L619.318 838.854C643.097 820.33 666.935 801.672 690.206 782.325L690.209 782.322C710.092 765.767 729.611 748.833 748.568 731.027L764.09 716.795L764.089 716.794C769.353 712.015 774.55 706.559 779.318 701.938L779.338 701.919L779.358 701.899L801.382 680.08L801.39 680.072L801.397 680.065L809.342 672.125L809.403 672.063L809.463 672L838.355 641.035L838.363 641.026L845.548 633.293L845.617 633.219L845.683 633.141L852.552 625.112L866.41 609.042L866.424 609.026L866.437 609.011C903.125 565.736 937.288 519.685 967.226 470.827L967.245 470.794C974.542 458.678 982.191 446.402 988.881 433.58L999.08 414.819L999.123 414.739L999.163 414.659L1008.71 395.485C1010.96 391.068 1013.16 386.618 1015.23 382.062C1019.17 373.67 1022.92 364.818 1026.67 356.53L1026.68 356.507L1026.69 356.484C1029.58 349.918 1032.15 342.86 1034.72 336.496L1034.72 336.487L1034.72 336.479C1037.34 329.936 1040.02 323.241 1042.32 316.435L1048.66 300.933L1048.66 300.932C1049.26 299.484 1049.07 298.089 1048.71 297.143C1048.36 296.237 1047.84 295.634 1047.57 295.349C1047.02 294.762 1046.41 294.363 1046.08 294.156C1045.33 293.685 1044.37 293.22 1043.42 292.792C1041.46 291.906 1038.7 290.823 1035.58 289.657C1029.29 287.313 1021.07 284.484 1013.59 281.954L1013.59 281.952L1009.31 280.518C1006.65 279.635 1004.16 278.818 1001.97 278.105L1024.91 259.137L1024.91 259.135L1131.34 170.996Z" fill="#D9A441" stroke="#D9A441" stroke-width="10"/>
      </g>
      <mask id="mask1_2284_59" style="mask-type:luminance" maskUnits="userSpaceOnUse" x="277" y="379" width="894" height="795">
        <path d="M1165.12 384.378V1168.32H282.422V384.378H1165.12Z" fill="white" stroke="white" stroke-width="10"/>
      </mask>
      <g mask="url(#mask1_2284_59)">
        <path d="M485.12 1014.37C484.773 1015.27 484.585 1016.24 484.585 1017.25V1129.95C484.585 1132.05 485.406 1134.06 486.871 1135.55L521.312 1170.7H288.74L324.901 1121.25C325.903 1119.88 326.443 1118.22 326.443 1116.53V1083.75C330.221 1082.26 334.275 1080.72 338.047 1079.15C383.548 1060.82 427.155 1041.73 469.604 1021.85L469.61 1021.84L469.617 1021.84C474.794 1019.39 479.995 1016.86 485.12 1014.37ZM1144.94 443.536C1136.33 465.57 1126.47 486.971 1115.82 507.814L1115.81 507.851L1115.79 507.887C1113.4 512.763 1110.81 517.614 1108.22 522.589C1106.37 525.981 1104.43 529.297 1102.44 532.67L1100.45 536.072C1099.78 537.22 1099.41 538.512 1099.37 539.83L1099.36 540.094L1098.97 1129.87C1098.97 1131.9 1099.74 1133.86 1101.12 1135.34L1134.04 1170.58H897.637L935.981 1123.7C937.145 1122.28 937.784 1120.5 937.789 1118.66L938.824 769.266C938.849 760.987 927.895 758.195 923.892 765.247L923.706 765.591L718.772 1165.08L610.193 969.473L609.996 969.137C607.953 965.84 603.833 964.492 600.241 965.919L599.884 966.07C569.954 979.655 539.517 991.856 508.781 1003C521.596 996.928 533.93 990.464 545.869 984.161L545.87 984.162L583.383 964.433L583.384 964.434C587.802 962.117 592.502 959.661 597.608 956.723L597.607 956.722C599.438 955.722 601.365 954.569 603.112 953.548L657.916 922.051L658.703 921.609L658.798 921.557L658.89 921.499C703.93 893.606 751.888 863.378 798.462 828.301L802.965 824.892L820.189 812.141L820.195 812.136L820.202 812.131C824.43 808.979 828.507 805.721 832.566 802.41L832.573 802.404L832.579 802.398C834.492 800.827 836.099 799.594 838.454 797.685L838.453 797.684L872.246 770.34L872.322 770.278L872.396 770.214L914.66 733.191L914.737 733.124L914.811 733.054L939.955 709.146L939.968 709.135L939.98 709.122C987.35 663.432 1028.12 617.594 1064.63 568.871L1064.65 568.842L1064.67 568.812L1068.61 563.401C1076.66 552.515 1084.95 541.212 1092.98 528.973L1106.07 509.594L1106.14 509.491L1106.2 509.387L1108.51 505.571L1119.34 488.046C1126.5 476.77 1132.85 465.309 1138.92 454.31L1138.92 454.3L1138.93 454.289C1140.77 450.918 1142.61 447.656 1144.5 444.337L1144.5 444.326L1144.51 444.316C1144.65 444.056 1144.8 443.795 1144.94 443.536Z" fill="#0A0F1D" stroke="#D9A441" stroke-width="10"/>
      </g>
    </g>
  </g>

  <!-- Vertical divider line (subtle) -->
  <line x1="480" y1="165" x2="480" y2="385" stroke="#D9A441" stroke-width="1.5" opacity="0.3"/>

  <!-- Text content - horizontally aligned with M center -->
  <g transform="translate(540, 0)">
    <!-- MOMENTUM Text -->
    <text x="0" y="235" fill="#D9A441" font-family="'Bodoni FLF', 'Bodoni MT', serif" font-size="155" font-weight="800" letter-spacing="12" style="text-transform: uppercase;">MOMENTUM</text>

    <!-- MANAGEMENT Text -->
    <text x="0" y="340" fill="#D9A441" font-family="'Bodoni FLF', 'Bodoni MT', serif" font-size="105" font-weight="300" letter-spacing="28" style="text-transform: uppercase;">MANAGEMENT</text>
  </g>

</svg>
