<svg width="2200" height="550" viewBox="0 0 2200 550" fill="none" xmlns="http://www.w3.org/2000/svg">
<g clip-path="url(#clip0_2286_22)">
<g opacity="0.1" filter="url(#filter0_f_2286_22)">
<path d="M245 475C355.457 475 445 385.457 445 275C445 164.543 355.457 75 245 75C134.543 75 45 164.543 45 275C45 385.457 134.543 475 245 475Z" fill="#D9A441"/>
</g>
<path opacity="0.3" d="M245 475C355.457 475 445 385.457 445 275C445 164.543 355.457 75 245 75C134.543 75 45 164.543 45 275C45 385.457 134.543 475 245 475Z" stroke="#D9A441" stroke-width="2"/>
<path d="M184.759 184.549L241.266 295.765V295.765L243.079 299.348C235.719 305.447 228.32 311.268 221.131 316.865L204.987 328.591L204.984 328.594L204.982 328.596C203.914 329.378 202.987 330.059 202.086 330.678C202.441 329.948 202.44 329.067 202.022 328.316L188.937 304.76C188.711 304.146 188.12 303.707 187.426 303.707C186.395 303.707 185.683 304.638 185.836 305.572V338.06C185.836 339.234 186.584 340.132 187.542 340.474C187.202 340.7 186.855 340.932 186.538 341.152C183.681 343.088 180.925 344.934 178.137 346.6L177.978 346.69L177.942 346.709L177.907 346.731C174.105 349.126 170.245 351.521 166.384 353.879C156.299 360.012 145.915 366.021 135.205 371.91V201.885C135.205 201.342 135.032 200.813 134.712 200.374L123.141 184.549H184.759Z" fill="#0A0F1D" stroke="#D9A441" stroke-width="3.2"/>
<mask id="mask0_2286_22" style="mask-type:luminance" maskUnits="userSpaceOnUse" x="82" y="113" width="326" height="299">
<path d="M406.196 115V409.994H84V115H406.196Z" fill="white" stroke="white" stroke-width="3.2"/>
</mask>
<g mask="url(#mask0_2286_22)">
<path d="M384.248 116.06C387.262 124.019 398.072 152.563 402.68 164.588C403.163 165.852 403.998 168.056 404.766 170.086C404.117 169.697 403.426 169.288 402.715 168.873C400.318 167.473 397.71 165.979 395.845 164.918L394.267 164.021L394.136 163.952C392.824 163.304 391.253 163.894 390.667 165.21L390.613 165.344C388.597 170.647 386.421 175.792 384.075 180.788C383.883 181.198 383.634 181.697 383.406 182.214C382.501 184.131 381.573 186.014 380.635 187.877V187.879C380.456 188.236 380.222 188.69 380.027 189.09C379.038 191.089 378.13 193.001 377.086 194.819L377.083 194.829L377.077 194.839C376.606 195.684 376.136 196.53 375.662 197.377C375.192 198.221 374.722 199.066 374.254 199.912C372.645 202.774 371.093 205.552 369.394 208.186L369.387 208.199L369.378 208.213L365.374 214.707L361.173 220.967L361.166 220.975L361.163 220.982C358.427 225.158 355.47 229.106 352.51 233.095C340.656 248.93 327.727 263.188 314.13 276.292L309.016 281.182L306.458 283.593L303.84 285.905L293.29 295.155L282.504 303.883C280.578 305.377 278.98 306.765 277.121 308.142L271.584 312.236L271.573 312.243L271.563 312.251C265.37 316.988 259.046 321.448 252.649 325.734L252.624 325.751C251.871 326.277 251.168 326.762 250.438 327.235L250.421 327.246C242.498 332.524 234.438 337.55 226.398 342.553L214.755 349.275L208.907 352.625L208.903 352.627C207.984 353.157 207.096 353.673 206.165 354.19C205.135 354.754 204.109 355.311 203.088 355.838L203.083 355.84L203.079 355.842L191.224 362.043L191.222 362.044C187.249 364.131 183.354 366.198 179.379 368.041L179.353 368.053L179.328 368.066C178.983 368.241 178.65 368.398 178.271 368.584C161.161 376.97 143.779 384.634 126.269 391.734L124.574 392.419C119.434 394.48 114.28 396.499 109.113 398.477C114.744 395.581 120.351 392.634 125.932 389.629L125.932 389.626C143.027 380.413 159.85 370.668 176.324 360.205C177.507 359.489 178.702 358.699 179.827 357.976C182.436 356.342 184.996 354.636 187.554 352.9L187.553 352.9L198.606 345.466C199.325 345.013 200.122 344.427 200.684 344.051L200.704 344.037L200.724 344.023C201.809 343.247 202.987 342.443 204.129 341.59L209.541 337.675L209.544 337.673L220.359 329.806L220.38 329.79L220.401 329.774C228.01 323.846 235.638 317.876 243.085 311.685L243.086 311.684C249.449 306.386 255.695 300.967 261.761 295.269L266.728 290.715L266.728 290.715C268.412 289.186 270.075 287.44 271.601 285.961L271.607 285.955L271.614 285.949L278.661 278.966L278.664 278.964L278.666 278.962L281.209 276.421L281.228 276.401L281.247 276.381L290.493 266.472L290.495 266.469L292.795 263.995L292.817 263.971L292.838 263.946L295.036 261.377L299.47 256.234L299.475 256.229L299.479 256.224C311.219 242.376 322.151 227.64 331.732 212.005L331.738 211.995C334.073 208.118 336.52 204.189 338.661 200.086L341.925 194.083L341.939 194.057L341.951 194.032L345.006 187.896C345.726 186.483 346.43 185.059 347.093 183.601C348.354 180.915 349.554 178.083 350.754 175.43L350.757 175.423L350.76 175.416C351.685 173.315 352.507 171.056 353.33 169.02V169.017V169.014C354.168 166.92 355.026 164.778 355.762 162.6L357.79 157.639V157.639C357.982 157.176 357.922 156.729 357.806 156.427C357.694 156.137 357.528 155.944 357.442 155.853C357.266 155.665 357.07 155.537 356.965 155.471C356.725 155.32 356.418 155.171 356.114 155.034C355.486 154.751 354.603 154.404 353.605 154.031C351.592 153.281 348.962 152.376 346.568 151.566V151.565L345.198 151.107C344.347 150.824 343.55 150.563 342.85 150.334L350.19 144.265V144.264L384.248 116.06Z" fill="#D9A441" stroke="#D9A441" stroke-width="3.2"/>
</g>
<mask id="mask1_2286_22" style="mask-type:luminance" maskUnits="userSpaceOnUse" x="110" y="182" width="287" height="255">
<path d="M395.057 184.342V435.203H112.594V184.342H395.057Z" fill="white" stroke="white" stroke-width="3.2"/>
</mask>
<g mask="url(#mask1_2286_22)">
<path d="M177.459 385.939C177.348 386.227 177.288 386.538 177.288 386.861V422.925C177.288 423.597 177.55 424.24 178.019 424.717L189.04 435.965H114.617L126.189 420.141C126.509 419.703 126.682 419.171 126.682 418.631V408.141C127.891 407.664 129.188 407.171 130.395 406.669C144.956 400.803 158.91 394.695 172.494 388.333L172.496 388.33H172.498C174.154 387.546 175.819 386.736 177.459 385.939ZM388.601 203.272C385.846 210.323 382.691 217.172 379.283 223.841L379.28 223.853L379.273 223.865C378.508 225.425 377.68 226.977 376.851 228.569C376.259 229.655 375.638 230.716 375.001 231.795L374.364 232.884C374.15 233.251 374.032 233.665 374.019 234.087L374.016 234.171L373.891 422.899C373.891 423.549 374.137 424.176 374.579 424.65L385.113 435.926H309.464L321.734 420.925C322.107 420.47 322.311 419.901 322.313 419.312L322.644 307.506C322.652 304.857 319.147 303.963 317.866 306.22L317.806 306.33L252.227 434.166L217.482 371.572L217.419 371.465C216.765 370.41 215.447 369.978 214.298 370.435L214.183 370.483C204.606 374.831 194.866 378.735 185.03 382.301C189.131 380.358 193.078 378.289 196.898 376.272L196.899 376.273L208.903 369.959L208.903 369.96C210.317 369.218 211.821 368.432 213.455 367.492L213.455 367.492C214.041 367.172 214.657 366.803 215.216 366.476L232.754 356.397L233.005 356.256L233.036 356.239L233.065 356.221C247.478 347.295 262.825 337.622 277.728 326.397L279.169 325.306L284.681 321.226L284.683 321.224L284.685 321.223C286.038 320.214 287.343 319.172 288.642 318.112L288.644 318.11L288.646 318.108C289.258 317.606 289.772 317.211 290.526 316.6L290.525 316.6L301.339 307.85L301.363 307.83L301.387 307.809L314.912 295.962L314.936 295.941L314.96 295.918L323.006 288.268L323.01 288.264L323.014 288.26C338.172 273.639 351.219 258.971 362.902 243.38L362.908 243.37L362.915 243.361L364.176 241.629C366.752 238.146 369.404 234.529 371.974 230.612L376.163 224.411L376.185 224.378L376.204 224.345L376.944 223.124L380.409 217.516C382.7 213.907 384.732 210.24 386.675 206.72V206.717L386.678 206.713C387.267 205.635 387.856 204.591 388.46 203.529V203.525L388.464 203.522C388.508 203.439 388.556 203.355 388.601 203.272Z" fill="#0A0F1D" stroke="#D9A441" stroke-width="3.2"/>
</g>
<path opacity="0.3" d="M480 165V385" stroke="#D9A441" stroke-width="1.5"/>
<path d="M482.798 171.273H512.19L543.234 247.011H544.555L575.599 171.273H604.992V284H581.874V210.628H580.939L551.766 283.45H536.024L506.851 210.353H505.915V284H482.798V171.273ZM728.219 227.636C728.219 239.929 725.889 250.387 721.228 259.011C716.605 267.634 710.293 274.221 702.294 278.771C694.331 283.284 685.377 285.541 675.433 285.541C665.415 285.541 656.425 283.266 648.462 278.716C640.499 274.166 634.206 267.579 629.582 258.956C624.959 250.332 622.647 239.893 622.647 227.636C622.647 215.344 624.959 204.885 629.582 196.262C634.206 187.639 640.499 181.07 648.462 176.557C656.425 172.007 665.415 169.732 675.433 169.732C685.377 169.732 694.331 172.007 702.294 176.557C710.293 181.07 716.605 187.639 721.228 196.262C725.889 204.885 728.219 215.344 728.219 227.636ZM704.055 227.636C704.055 219.674 702.863 212.958 700.477 207.491C698.129 202.023 694.808 197.877 690.515 195.051C686.221 192.226 681.194 190.813 675.433 190.813C669.672 190.813 664.645 192.226 660.351 195.051C656.058 197.877 652.719 202.023 650.334 207.491C647.985 212.958 646.811 219.674 646.811 227.636C646.811 235.599 647.985 242.314 650.334 247.782C652.719 253.25 656.058 257.396 660.351 260.222C664.645 263.047 669.672 264.46 675.433 264.46C681.194 264.46 686.221 263.047 690.515 260.222C694.808 257.396 698.129 253.25 700.477 247.782C702.863 242.314 704.055 235.599 704.055 227.636ZM745.874 171.273H775.267L806.311 247.011H807.632L838.676 171.273H868.068V284H844.95V210.628H844.015L814.842 283.45H799.1L769.927 210.353H768.992V284H745.874V171.273ZM887.705 284V171.273H963.664V190.923H911.538V217.784H959.756V237.434H911.538V264.35H963.884V284H887.705ZM1076.9 171.273V284H1056.31L1007.27 213.05H1006.45V284H982.612V171.273H1003.53L1052.19 242.168H1053.18V171.273H1076.9ZM1092.3 190.923V171.273H1184.88V190.923H1150.37V284H1126.81V190.923H1092.3ZM1269.76 171.273H1293.59V244.479C1293.59 252.699 1291.63 259.891 1287.7 266.056C1283.81 272.221 1278.36 277.028 1271.35 280.477C1264.34 283.89 1256.18 285.596 1246.86 285.596C1237.5 285.596 1229.32 283.89 1222.31 280.477C1215.3 277.028 1209.85 272.221 1205.96 266.056C1202.07 259.891 1200.13 252.699 1200.13 244.479V171.273H1223.96V242.443C1223.96 246.736 1224.9 250.552 1226.77 253.892C1228.68 257.231 1231.35 259.855 1234.8 261.763C1238.25 263.671 1242.27 264.625 1246.86 264.625C1251.48 264.625 1255.5 263.671 1258.91 261.763C1262.36 259.855 1265.02 257.231 1266.89 253.892C1268.8 250.552 1269.76 246.736 1269.76 242.443V171.273ZM1313.2 171.273H1342.59L1373.63 247.011H1374.96L1406 171.273H1435.39V284H1412.27V210.628H1411.34L1382.17 283.45H1366.42L1337.25 210.353H1336.32V284H1313.2V171.273Z" fill="#D9A441"/>
<path d="M482.247 314.636H493.284L519.236 378.024H520.131L546.082 314.636H557.119V391H548.469V332.982H547.723L523.859 391H515.507L491.643 332.982H490.898V391H482.247V314.636ZM578.792 391H569.098L597.138 314.636H606.683L634.723 391H625.028L602.209 326.717H601.612L578.792 391ZM582.372 361.17H621.449V369.374H582.372V361.17ZM707.171 314.636V391H698.222L656.61 331.043H655.864V391H646.617V314.636H655.566L697.328 374.743H698.073V314.636H707.171ZM728.807 391H719.112L747.152 314.636H756.698L784.737 391H775.043L752.223 326.717H751.627L728.807 391ZM732.387 361.17H771.463V369.374H732.387V361.17ZM845.245 338.5C844.424 335.989 843.343 333.74 842.001 331.751C840.683 329.738 839.105 328.022 837.265 326.605C835.451 325.189 833.388 324.107 831.076 323.362C828.764 322.616 826.228 322.243 823.469 322.243C818.945 322.243 814.831 323.411 811.127 325.748C807.423 328.085 804.478 331.527 802.29 336.076C800.103 340.625 799.009 346.206 799.009 352.818C799.009 359.43 800.115 365.011 802.328 369.56C804.54 374.109 807.535 377.552 811.314 379.888C815.092 382.225 819.343 383.393 824.066 383.393C828.441 383.393 832.294 382.461 835.625 380.597C838.981 378.708 841.591 376.048 843.455 372.618C845.344 369.162 846.289 365.098 846.289 360.425L849.123 361.021H826.154V352.818H855.238V361.021C855.238 367.31 853.895 372.779 851.211 377.428C848.551 382.076 844.872 385.68 840.174 388.241C835.5 390.776 830.131 392.044 824.066 392.044C817.304 392.044 811.363 390.453 806.243 387.271C801.147 384.089 797.169 379.565 794.311 373.699C791.477 367.832 790.06 360.872 790.06 352.818C790.06 346.778 790.868 341.346 792.484 336.524C794.124 331.676 796.436 327.55 799.419 324.145C802.402 320.739 805.932 318.129 810.009 316.314C814.085 314.5 818.572 313.592 823.469 313.592C827.496 313.592 831.25 314.201 834.73 315.419C838.235 316.613 841.354 318.315 844.089 320.528C846.848 322.715 849.147 325.338 850.987 328.395C852.826 331.428 854.094 334.796 854.79 338.5H845.245ZM871.075 391V314.636H917.162V322.839H880.322V348.642H914.776V356.845H880.322V382.797H917.759V391H871.075ZM933.829 314.636H944.866L970.818 378.024H971.713L997.664 314.636H1008.7V391H1000.05V332.982H999.305L975.441 391H967.089L943.225 332.982H942.48V391H933.829V314.636ZM1027.24 391V314.636H1073.33V322.839H1036.49V348.642H1070.94V356.845H1036.49V382.797H1073.93V391H1027.24ZM1150.55 314.636V391H1141.6L1099.99 331.043H1099.24V391H1090V314.636H1098.95L1140.71 374.743H1141.45V314.636H1150.55ZM1164.88 322.839V314.636H1222.15V322.839H1198.14V391H1188.89V322.839H1164.88Z" fill="#D9A441"/>
</g>
<defs>
<filter id="filter0_f_2286_22" x="-3" y="27" width="496" height="496" filterUnits="userSpaceOnUse" color-interpolation-filters="sRGB">
<feFlood flood-opacity="0" result="BackgroundImageFix"/>
<feBlend mode="normal" in="SourceGraphic" in2="BackgroundImageFix" result="shape"/>
<feGaussianBlur stdDeviation="24" result="effect1_foregroundBlur_2286_22"/>
</filter>
<clipPath id="clip0_2286_22">
<rect width="2200" height="550" fill="white"/>
</clipPath>
</defs>
</svg>
