<svg width="496" height="496" viewBox="0 0 496 496" fill="none" xmlns="http://www.w3.org/2000/svg">
<g opacity="0.1" filter="url(#filter0_f_2293_4)">
<path d="M248 448C358.457 448 448 358.457 448 248C448 137.543 358.457 48 248 48C137.543 48 48 137.543 48 248C48 358.457 137.543 448 248 448Z" fill="#D9A441"/>
</g>
<path opacity="0.3" d="M248 448C358.457 448 448 358.457 448 248C448 137.543 358.457 48 248 48C137.543 48 48 137.543 48 248C48 358.457 137.543 448 248 448Z" stroke="#D9A441" stroke-width="2"/>
<path d="M187.759 157.549L244.266 268.765V268.765L246.079 272.348C238.719 278.447 231.32 284.268 224.131 289.865L207.987 301.591L207.984 301.594L207.982 301.596C206.914 302.378 205.987 303.059 205.086 303.678C205.441 302.948 205.44 302.067 205.022 301.316L191.937 277.76C191.711 277.146 191.12 276.707 190.426 276.707C189.395 276.707 188.683 277.638 188.836 278.572V311.06C188.836 312.234 189.584 313.132 190.542 313.474C190.202 313.7 189.855 313.932 189.538 314.152C186.681 316.088 183.925 317.934 181.137 319.6L180.978 319.69L180.942 319.709L180.907 319.731C177.105 322.126 173.245 324.521 169.384 326.879C159.299 333.012 148.915 339.021 138.205 344.91V174.885C138.205 174.342 138.032 173.813 137.712 173.374L126.141 157.549H187.759Z" fill="#0A0F1D" stroke="#D9A441" stroke-width="3.2"/>
<mask id="mask0_2293_4" style="mask-type:luminance" maskUnits="userSpaceOnUse" x="85" y="86" width="326" height="299">
<path d="M409.196 88V382.994H87V88H409.196Z" fill="white" stroke="white" stroke-width="3.2"/>
</mask>
<g mask="url(#mask0_2293_4)">
<path d="M387.248 89.0596C390.262 97.0189 401.072 125.563 405.68 137.588C406.163 138.852 406.998 141.056 407.766 143.086C407.117 142.697 406.426 142.288 405.715 141.873C403.318 140.473 400.71 138.979 398.845 137.918L397.267 137.021L397.136 136.952C395.824 136.304 394.253 136.894 393.667 138.21L393.613 138.344C391.597 143.647 389.421 148.792 387.075 153.788C386.883 154.198 386.634 154.697 386.406 155.214C385.501 157.131 384.573 159.014 383.635 160.877V160.879C383.456 161.236 383.222 161.69 383.027 162.09C382.038 164.089 381.13 166.001 380.086 167.819L380.083 167.829L380.077 167.839C379.606 168.684 379.136 169.53 378.662 170.377C378.192 171.221 377.722 172.066 377.254 172.912C375.645 175.774 374.093 178.552 372.394 181.186L372.387 181.199L372.378 181.213L368.374 187.707L364.173 193.967L364.166 193.975L364.163 193.982C361.427 198.158 358.47 202.106 355.51 206.095C343.656 221.93 330.727 236.188 317.13 249.292L312.016 254.182L309.458 256.593L306.84 258.905L296.29 268.155L285.504 276.883C283.578 278.377 281.98 279.765 280.121 281.142L274.584 285.236L274.573 285.243L274.563 285.251C268.37 289.988 262.046 294.448 255.649 298.734L255.624 298.751C254.871 299.277 254.168 299.762 253.438 300.235L253.421 300.246C245.498 305.524 237.438 310.55 229.398 315.553L217.755 322.275L211.907 325.625L211.903 325.627C210.984 326.157 210.096 326.673 209.165 327.19C208.135 327.754 207.109 328.311 206.088 328.838L206.083 328.84L206.079 328.842L194.224 335.043L194.222 335.044C190.249 337.131 186.354 339.198 182.379 341.041L182.353 341.053L182.328 341.066C181.983 341.241 181.65 341.398 181.271 341.584C164.161 349.97 146.779 357.634 129.269 364.734L127.574 365.419C122.434 367.48 117.28 369.499 112.113 371.477C117.744 368.581 123.351 365.634 128.932 362.629L128.932 362.626C146.027 353.413 162.85 343.668 179.324 333.205C180.507 332.489 181.702 331.699 182.827 330.976C185.436 329.342 187.996 327.636 190.554 325.9L190.553 325.9L201.606 318.466C202.325 318.013 203.122 317.427 203.684 317.051L203.704 317.037L203.724 317.023C204.809 316.247 205.987 315.443 207.129 314.59L212.541 310.675L212.544 310.673L223.359 302.806L223.38 302.79L223.401 302.774C231.01 296.846 238.638 290.876 246.085 284.685L246.086 284.684C252.449 279.386 258.695 273.967 264.761 268.269L269.728 263.715L269.728 263.715C271.412 262.186 273.075 260.44 274.601 258.961L274.607 258.955L274.614 258.949L281.661 251.966L281.664 251.964L281.666 251.962L284.209 249.421L284.228 249.401L284.247 249.381L293.493 239.472L293.495 239.469L295.795 236.995L295.817 236.971L295.838 236.946L298.036 234.377L302.47 229.234L302.475 229.229L302.479 229.224C314.219 215.376 325.151 200.64 334.732 185.005L334.738 184.995C337.073 181.118 339.52 177.189 341.661 173.086L344.925 167.083L344.939 167.057L344.951 167.032L348.006 160.896C348.726 159.483 349.43 158.059 350.093 156.601C351.354 153.915 352.554 151.083 353.754 148.43L353.757 148.423L353.76 148.416C354.685 146.315 355.507 144.056 356.33 142.02V142.017V142.014C357.168 139.92 358.026 137.778 358.762 135.6L360.79 130.639V130.639C360.982 130.176 360.922 129.729 360.806 129.427C360.694 129.137 360.528 128.944 360.442 128.853C360.266 128.665 360.07 128.537 359.965 128.471C359.725 128.32 359.418 128.171 359.114 128.034C358.486 127.751 357.603 127.404 356.605 127.031C354.592 126.281 351.962 125.376 349.568 124.566V124.565L348.198 124.107C347.347 123.824 346.55 123.563 345.85 123.334L353.19 117.265V117.264L387.248 89.0596Z" fill="#D9A441" stroke="#D9A441" stroke-width="3.2"/>
</g>
<mask id="mask1_2293_4" style="mask-type:luminance" maskUnits="userSpaceOnUse" x="113" y="155" width="287" height="255">
<path d="M398.057 157.342V408.203H115.594V157.342H398.057Z" fill="white" stroke="white" stroke-width="3.2"/>
</mask>
<g mask="url(#mask1_2293_4)">
<path d="M180.459 358.939C180.348 359.227 180.288 359.538 180.288 359.861V395.925C180.288 396.597 180.55 397.24 181.019 397.717L192.04 408.965H117.617L129.189 393.141C129.509 392.703 129.682 392.171 129.682 391.631V381.141C130.891 380.664 132.188 380.171 133.395 379.669C147.956 373.803 161.91 367.695 175.494 361.333L175.496 361.33H175.498C177.154 360.546 178.819 359.736 180.459 358.939ZM391.601 176.272C388.846 183.323 385.691 190.172 382.283 196.841L382.28 196.853L382.273 196.865C381.508 198.425 380.68 199.977 379.851 201.569C379.259 202.655 378.638 203.716 378.001 204.795L377.364 205.884C377.15 206.251 377.032 206.665 377.019 207.087L377.016 207.171L376.891 395.899C376.891 396.549 377.137 397.176 377.579 397.65L388.113 408.926H312.464L324.734 393.925C325.107 393.47 325.311 392.901 325.313 392.312L325.644 280.506C325.652 277.857 322.147 276.963 320.866 279.22L320.806 279.33L255.227 407.166L220.482 344.572L220.419 344.465C219.765 343.41 218.447 342.978 217.298 343.435L217.183 343.483C207.606 347.831 197.866 351.735 188.03 355.301C192.131 353.358 196.078 351.289 199.898 349.272L199.899 349.273L211.903 342.959L211.903 342.96C213.317 342.218 214.821 341.432 216.455 340.492L216.455 340.492C217.041 340.172 217.657 339.803 218.216 339.476L235.754 329.397L236.005 329.256L236.036 329.239L236.065 329.221C250.478 320.295 265.825 310.622 280.728 299.397L282.169 298.306L287.681 294.226L287.683 294.224L287.685 294.223C289.038 293.214 290.343 292.172 291.642 291.112L291.644 291.11L291.646 291.108C292.258 290.606 292.772 290.211 293.526 289.6L293.525 289.6L304.339 280.85L304.363 280.83L304.387 280.809L317.912 268.962L317.936 268.941L317.96 268.918L326.006 261.268L326.01 261.264L326.014 261.26C341.172 246.639 354.219 231.971 365.902 216.38L365.908 216.37L365.915 216.361L367.176 214.629C369.752 211.146 372.404 207.529 374.974 203.612L379.163 197.411L379.185 197.378L379.204 197.345L379.944 196.124L383.409 190.516C385.7 186.907 387.732 183.24 389.675 179.72V179.717L389.678 179.713C390.267 178.635 390.856 177.591 391.46 176.529V176.525L391.464 176.522C391.508 176.439 391.556 176.355 391.601 176.272Z" fill="#0A0F1D" stroke="#D9A441" stroke-width="3.2"/>
</g>
<defs>
<filter id="filter0_f_2293_4" x="0" y="0" width="496" height="496" filterUnits="userSpaceOnUse" color-interpolation-filters="sRGB">
<feFlood flood-opacity="0" result="BackgroundImageFix"/>
<feBlend mode="normal" in="SourceGraphic" in2="BackgroundImageFix" result="shape"/>
<feGaussianBlur stdDeviation="24" result="effect1_foregroundBlur_2293_4"/>
</filter>
</defs>
</svg>
